AdventPro-blk_it.ufo
<glyph name="quotedbl" format="1">
  <advance width="284" height="962"/>
  <unicode hex="0022"/>
  <outline>
    <contour>
      <point x="156" y="705" type="line"/>
      <point x="172" y="781"/>
      <point x="293" y="781"/>
      <point x="277" y="705" type="curve"/>
      <point x="234" y="589" type="line"/>
      <point x="149" y="589" type="line"/>
    </contour>
    <contour>
      <point x="306" y="705" type="line"/>
      <point x="322" y="781"/>
      <point x="443" y="781"/>
      <point x="427" y="705" type="curve"/>
      <point x="384" y="589" type="line"/>
      <point x="299" y="589" type="line"/>
    </contour>
  </outline>
</glyph>
<glyph name="dollar" format="2">
  <advance width="546" height="962"/>
  <unicode hex="0024"/>
  <outline>
    <component base="S" xOffset="1.5232"/>
    <contour>
      <point x="206" y="-115" type="line"/>
      <point x="404" y="819" type="line"/>
      <point x="514" y="819" type="line"/>
      <point x="316" y="-115" type="line"/>
    </contour>
  </outline>
</glyph>
<glyph name="plus" format="2">
  <advance width="382"/>
  <unicode hex="002B"/>
  <outline>
    <contour>
      <point x="358" y="531" type="line"/>
      <point x="334" y="420" type="line"/>
      <point x="439" y="420" type="line"/>
      <point x="417" y="314" type="line"/>
      <point x="312" y="314" type="line"/>
      <point x="290" y="211" type="line"/>
      <point x="179" y="211" type="line"/>
      <point x="201" y="314" type="line"/>
      <point x="96" y="314" type="line"/>
      <point x="118" y="420" type="line"/>
      <point x="223" y="420" type="line"/>
      <point x="247" y="531" type="line"/>
    </contour>
  </outline>
</glyph>
<glyph name="period" format="2">
  <advance width="190"/>
  <unicode hex="002E"/>
  <outline>
    <contour>
      <point x="124" y="137" type="curve" smooth="yes"/>
      <point x="167" y="137"/>
      <point x="195" y="102"/>
      <point x="186" y="60" type="curve" smooth="yes"/>
      <point x="177" y="17"/>
      <point x="134" y="-18"/>
      <point x="91" y="-18" type="curve" smooth="yes"/>
      <point x="47" y="-18"/>
      <point x="21" y="17"/>
      <point x="30" y="60" type="curve" smooth="yes"/>
      <point x="39" y="102"/>
      <point x="80" y="137"/>
    </contour>
  </outline>
</glyph>
<glyph name="zero" format="2">
  <advance width="495"/>
  <unicode hex="0030"/>
  <outline>
    <contour>
      <point x="144" y="508" type="line" smooth="yes"/>
      <point x="173" y="644"/>
      <point x="269" y="717"/>
      <point x="401" y="717" type="curve" smooth="yes"/>
      <point x="533" y="717"/>
      <point x="594" y="638"/>
      <point x="566" y="507" type="curve" smooth="yes"/>
      <point x="498" y="186" type="line"/>
      <point x="471" y="63"/>
      <point x="372" y="-11"/>
      <point x="246" y="-11" type="curve" smooth="yes"/>
      <point x="128" y="-11"/>
      <point x="48" y="56"/>
      <point x="76" y="186" type="curve" smooth="yes"/>
    </contour>
    <contour>
      <point x="259" y="203" type="line" smooth="yes"/>
      <point x="251" y="165"/>
      <point x="259" y="149"/>
      <point x="279" y="149" type="curve" smooth="yes"/>
      <point x="299" y="149"/>
      <point x="313" y="166"/>
      <point x="321" y="203" type="curve" smooth="yes"/>
      <point x="385" y="499" type="line" smooth="yes"/>
      <point x="394" y="541"/>
      <point x="385" y="553"/>
      <point x="365" y="553" type="curve" smooth="yes"/>
      <point x="345" y="553"/>
      <point x="333" y="542"/>
      <point x="323" y="498" type="curve" smooth="yes"/>
    </contour>
  </outline>
</glyph>
<glyph name="two" format="2">
  <advance width="442"/>
  <unicode hex="0032"/>
  <outline>
    <contour>
      <point x="155" y="566" type="line"/>
      <point x="214" y="666"/>
      <point x="297" y="710"/>
      <point x="377" y="710" type="curve" smooth="yes"/>
      <point x="467" y="710"/>
      <point x="542" y="653"/>
      <point x="518" y="540" type="curve" smooth="yes"/>
      <point x="505" y="478"/>
      <point x="478" y="431"/>
      <point x="431" y="373" type="curve" smooth="yes"/>
      <point x="267" y="168" type="line"/>
      <point x="442" y="168" type="line"/>
      <point x="406" y="0" type="line"/>
      <point x="32" y="0" type="line"/>
      <point x="65" y="160" type="line"/>
      <point x="318" y="480" type="line" smooth="yes"/>
      <point x="329" y="494"/>
      <point x="331" y="500"/>
      <point x="333" y="506" type="curve" smooth="yes"/>
      <point x="335" y="517"/>
      <point x="328" y="523"/>
      <point x="321" y="523" type="curve" smooth="yes"/>
      <point x="308" y="523"/>
      <point x="293" y="513"/>
      <point x="283" y="490" type="curve"/>
    </contour>
  </outline>
</glyph>
<glyph name="three" format="2">
  <advance width="451" height="962"/>
  <unicode hex="0033"/>
  <outline>
    <contour>
      <point x="378" y="412" type="line" smooth="yes"/>
      <point x="460" y="372"/>
      <point x="486" y="311"/>
      <point x="465" y="212" type="curve" smooth="yes"/>
      <point x="440" y="93"/>
      <point x="322" y="-12"/>
      <point x="203" y="-12" type="curve" smooth="yes"/>
      <point x="132" y="-12"/>
      <point x="73" y="3"/>
      <point x="24" y="60" type="curve"/>
      <point x="135" y="186" type="line"/>
      <point x="150" y="162"/>
      <point x="182" y="153"/>
      <point x="209" y="153" type="curve" smooth="yes"/>
      <point x="249" y="153"/>
      <point x="278" y="181"/>
      <point x="286" y="215" type="curve" smooth="yes"/>
      <point x="295" y="260"/>
      <point x="252" y="275"/>
      <point x="210" y="275" type="curve" smooth="yes"/>
      <point x="108" y="275" type="line"/>
      <point x="309" y="540" type="line"/>
      <point x="188" y="540" type="line"/>
      <point x="222" y="700" type="line"/>
      <point x="513" y="700" type="line"/>
      <point x="479" y="540" type="line"/>
      <point x="375" y="414" type="line"/>
    </contour>
  </outline>
</glyph>
<glyph name="five" format="2">
  <advance width="470"/>
  <unicode hex="0035"/>
  <outline>
    <contour>
      <point x="330" y="431" type="line"/>
      <point x="333" y="431" type="line" smooth="yes"/>
      <point x="459" y="431"/>
      <point x="517" y="332"/>
      <point x="491" y="213" type="curve" smooth="yes"/>
      <point x="463" y="81"/>
      <point x="391" y="-12"/>
      <point x="217" y="-12" type="curve" smooth="yes"/>
      <point x="106" y="-12"/>
      <point x="31" y="49"/>
      <point x="31" y="47" type="curve"/>
      <point x="107" y="186" type="line"/>
      <point x="107" y="186"/>
      <point x="153" y="154"/>
      <point x="212" y="154" type="curve" smooth="yes"/>
      <point x="250" y="154"/>
      <point x="301" y="167"/>
      <point x="311" y="212" type="curve" smooth="yes"/>
      <point x="321" y="259"/>
      <point x="290" y="274"/>
      <point x="241" y="274" type="curve" smooth="yes"/>
      <point x="120" y="274" type="line"/>
      <point x="237" y="700" type="line"/>
      <point x="536" y="700" type="line"/>
      <point x="502" y="540" type="line"/>
      <point x="358" y="540" type="line"/>
    </contour>
  </outline>
</glyph>
<glyph name="colon" format="2">
  <advance width="197"/>
  <unicode hex="003A"/>
  <outline>
    <contour>
      <point x="207" y="144" type="curve" smooth="yes"/>
      <point x="197" y="101"/>
      <point x="155" y="66"/>
      <point x="112" y="66" type="curve" smooth="yes"/>
      <point x="68" y="66"/>
      <point x="41" y="101"/>
      <point x="51" y="144" type="curve" smooth="yes"/>
      <point x="60" y="186"/>
      <point x="101" y="221"/>
      <point x="145" y="221" type="curve" smooth="yes"/>
      <point x="188" y="221"/>
      <point x="216" y="186"/>
    </contour>
    <contour>
      <point x="258" y="384" type="curve" smooth="yes"/>
      <point x="248" y="341"/>
      <point x="206" y="306"/>
      <point x="163" y="306" type="curve" smooth="yes"/>
      <point x="119" y="306"/>
      <point x="92" y="341"/>
      <point x="102" y="384" type="curve" smooth="yes"/>
      <point x="111" y="426"/>
      <point x="152" y="461"/>
      <point x="196" y="461" type="curve" smooth="yes"/>
      <point x="239" y="461"/>
      <point x="267" y="426"/>
    </contour>
  </outline>
</glyph>
<glyph name="question" format="2">
  <advance width="427"/>
  <unicode hex="003F"/>
  <outline>
    <contour>
      <point x="132" y="508" type="line"/>
      <point x="160" y="640"/>
      <point x="242" y="710"/>
      <point x="356" y="710" type="curve" smooth="yes"/>
      <point x="470" y="710"/>
      <point x="534" y="644"/>
      <point x="508" y="523" type="curve" smooth="yes"/>
      <point x="492" y="447"/>
      <point x="455" y="408"/>
      <point x="405" y="356" type="curve" smooth="yes"/>
      <point x="347" y="295"/>
      <point x="340" y="253"/>
      <point x="331" y="211" type="curve" smooth="yes"/>
      <point x="322" y="170" type="line"/>
      <point x="143" y="170" type="line"/>
      <point x="152" y="213" type="line" smooth="yes"/>
      <point x="171" y="299"/>
      <point x="199" y="347"/>
      <point x="248" y="401" type="curve" smooth="yes"/>
      <point x="291" y="447"/>
      <point x="324" y="478"/>
      <point x="330" y="506" type="curve" smooth="yes"/>
      <point x="335" y="532"/>
      <point x="332" y="537"/>
      <point x="323" y="537" type="curve" smooth="yes"/>
      <point x="317" y="537"/>
      <point x="308" y="533"/>
      <point x="303" y="508" type="curve"/>
    </contour>
    <contour>
      <point x="225" y="137" type="curve" smooth="yes"/>
      <point x="268" y="137"/>
      <point x="296" y="102"/>
      <point x="287" y="60" type="curve" smooth="yes"/>
      <point x="278" y="17"/>
      <point x="235" y="-18"/>
      <point x="192" y="-18" type="curve" smooth="yes"/>
      <point x="148" y="-18"/>
      <point x="122" y="17"/>
      <point x="131" y="60" type="curve" smooth="yes"/>
      <point x="140" y="102"/>
      <point x="181" y="137"/>
    </contour>
  </outline>
</glyph>
<glyph name="at" format="1">
  <advance width="880" height="962"/>
  <unicode hex="0040"/>
  <outline>
    <contour>
      <point x="954" y="359" type="line"/>
      <point x="910" y="339"/>
      <point x="894" y="281"/>
      <point x="886" y="243" type="curve" smooth="yes"/>
      <point x="861" y="129" type="line" smooth="yes"/>
      <point x="832" y="-11"/>
      <point x="667" y="-147"/>
      <point x="407" y="-147" type="curve" smooth="yes"/>
      <point x="92" y="-147"/>
      <point x="37" y="15"/>
      <point x="77" y="202" type="curve" smooth="yes"/>
      <point x="109" y="351" type="line" smooth="yes"/>
      <point x="151" y="551"/>
      <point x="332" y="667"/>
      <point x="517" y="667" type="curve" smooth="yes"/>
      <point x="699" y="667"/>
      <point x="750" y="585"/>
      <point x="728" y="478" type="curve"/>
      <point x="768" y="479" type="line"/>
      <point x="711" y="327" type="line"/>
      <point x="696" y="327" type="line"/>
      <point x="650" y="115" type="line"/>
      <point x="651" y="115"/>
      <point x="578" y="40"/>
      <point x="447" y="40" type="curve" smooth="yes"/>
      <point x="287" y="40"/>
      <point x="265" y="109"/>
      <point x="285" y="201" type="curve" smooth="yes"/>
      <point x="309" y="316" type="line" smooth="yes"/>
      <point x="334" y="432"/>
      <point x="404" y="479"/>
      <point x="483" y="479" type="curve" smooth="yes"/>
      <point x="549" y="479" type="line"/>
      <point x="552" y="494"/>
      <point x="533" y="506"/>
      <point x="488" y="506" type="curve" smooth="yes"/>
      <point x="386" y="506"/>
      <point x="306" y="435"/>
      <point x="283" y="323" type="curve" smooth="yes"/>
      <point x="255" y="191" type="line" smooth="yes"/>
      <point x="228" y="66"/>
      <point x="299" y="11"/>
      <point x="443" y="11" type="curve" smooth="yes"/>
      <point x="585" y="11"/>
      <point x="672" y="87"/>
      <point x="681" y="129" type="curve" smooth="yes"/>
      <point x="700" y="218" type="line" smooth="yes"/>
      <point x="720" y="311"/>
      <point x="743" y="418"/>
      <point x="855" y="479" type="curve"/>
    </contour>
    <contour>
      <point x="505" y="319" type="line" smooth="yes"/>
      <point x="494" y="319"/>
      <point x="487" y="312"/>
      <point x="484" y="298" type="curve" smooth="yes"/>
      <point x="468" y="219" type="line" smooth="yes"/>
      <point x="465" y="209"/>
      <point x="469" y="201"/>
      <point x="477" y="201" type="curve" smooth="yes"/>
      <point x="481" y="201"/>
      <point x="486" y="201"/>
      <point x="491" y="202" type="curve"/>
      <point x="516" y="319" type="line"/>
    </contour>
  </outline>
</glyph>
<glyph name="A" format="1">
  <advance width="545" height="962"/>
  <unicode hex="0041"/>
  <outline>
    <contour>
      <point x="522" y="0" type="line"/>
      <point x="331" y="0" type="line"/>
      <point x="342" y="115" type="line"/>
      <point x="251" y="115" type="line"/>
      <point x="215" y="0" type="line"/>
      <point x="24" y="0" type="line"/>
      <point x="283" y="700" type="line"/>
      <point x="558" y="700" type="line"/>
    </contour>
    <contour>
      <point x="301" y="272" type="line"/>
      <point x="360" y="272" type="line"/>
      <point x="389" y="552" type="line"/>
    </contour>
  </outline>
</glyph>
<glyph name="J" format="1">
  <advance width="312" height="962"/>
  <unicode hex="004A"/>
  <outline>
    <contour>
      <point x="306" y="166" type="line" smooth="yes"/>
      <point x="282" y="52"/>
      <point x="192" y="-37"/>
      <point x="35" y="-37" type="curve"/>
      <point x="30" y="109" type="line"/>
      <point x="101" y="109"/>
      <point x="121" y="143"/>
      <point x="135" y="209" type="curve" smooth="yes"/>
      <point x="208" y="550" type="line"/>
      <point x="140" y="552" type="line"/>
      <point x="172" y="700" type="line"/>
      <point x="420" y="700" type="line"/>
    </contour>
  </outline>
</glyph>
<glyph name="N" format="2">
  <advance width="578"/>
  <unicode hex="004E"/>
  <outline>
    <contour>
      <point x="684" y="700" type="line"/>
      <point x="535" y="0" type="line"/>
      <point x="349" y="0" type="line"/>
      <point x="284" y="295" type="line"/>
      <point x="221" y="-1" type="line"/>
      <point x="41" y="0" type="line"/>
      <point x="190" y="700" type="line"/>
      <point x="370" y="700" type="line"/>
      <point x="437" y="393" type="line"/>
      <point x="502" y="700" type="line"/>
    </contour>
  </outline>
</glyph>
<glyph name="P" format="2">
  <advance width="509" height="962"/>
  <unicode hex="0050"/>
  <outline>
    <contour>
      <point x="408" y="700" type="line" smooth="yes"/>
      <point x="513" y="700"/>
      <point x="617" y="646"/>
      <point x="571" y="438" type="curve" smooth="yes"/>
      <point x="523" y="220"/>
      <point x="404" y="172"/>
      <point x="296" y="172" type="curve" smooth="yes"/>
      <point x="258" y="172" type="line"/>
      <point x="221" y="0" type="line"/>
      <point x="41" y="0" type="line"/>
      <point x="190" y="700" type="line"/>
    </contour>
    <contour>
      <point x="292" y="332" type="line"/>
      <point x="315" y="332" type="line" smooth="yes"/>
      <point x="353" y="332"/>
      <point x="373" y="358"/>
      <point x="390" y="436" type="curve" smooth="yes"/>
      <point x="405" y="508"/>
      <point x="395" y="537"/>
      <point x="358" y="537" type="curve" smooth="yes"/>
      <point x="335" y="537" type="line"/>
    </contour>
  </outline>
</glyph>
<glyph name="Q" format="2">
  <advance width="495" height="962"/>
  <unicode hex="0051"/>
  <outline>
    <component base="O"/>
    <contour>
      <point x="330" y="61" type="line" smooth="yes"/>
      <point x="321" y="17"/>
      <point x="318" y="-32"/>
      <point x="449" y="-8" type="curve"/>
      <point x="369" y="-151" type="line"/>
      <point x="178" y="-151"/>
      <point x="159" y="-63"/>
      <point x="177" y="19" type="curve" smooth="yes"/>
      <point x="212" y="178" type="line"/>
      <point x="355" y="178" type="line"/>
    </contour>
  </outline>
</glyph>
<glyph name="S" format="1">
  <advance width="546" height="962"/>
  <unicode hex="0053"/>
  <outline>
    <contour>
      <point x="531" y="527" type="line"/>
      <point x="495" y="542"/>
      <point x="460" y="556"/>
      <point x="416" y="556" type="curve" smooth="yes"/>
      <point x="374" y="556"/>
      <point x="342" y="544"/>
      <point x="334" y="506" type="curve" smooth="yes"/>
      <point x="316" y="421"/>
      <point x="614" y="432"/>
      <point x="568" y="214" type="curve" smooth="yes"/>
      <point x="532" y="46"/>
      <point x="396" y="-12"/>
      <point x="262" y="-12" type="curve" smooth="yes"/>
      <point x="176" y="-12"/>
      <point x="95" y="22"/>
      <point x="52" y="88" type="curve"/>
      <point x="161" y="213" type="line"/>
      <point x="188" y="178"/>
      <point x="233" y="148"/>
      <point x="283" y="148" type="curve" smooth="yes"/>
      <point x="334" y="148"/>
      <point x="372" y="166"/>
      <point x="381" y="209" type="curve" smooth="yes"/>
      <point x="401" y="300"/>
      <point x="115" y="286"/>
      <point x="162" y="508" type="curve" smooth="yes"/>
      <point x="195" y="663"/>
      <point x="340" y="710"/>
      <point x="442" y="710" type="curve" smooth="yes"/>
      <point x="497" y="710"/>
      <point x="551" y="699"/>
      <point x="594" y="673" type="curve"/>
    </contour>
  </outline>
</glyph>
<glyph name="U" format="2">
  <advance width="501"/>
  <unicode hex="0055"/>
  <outline>
    <contour>
      <point x="501" y="186" type="line" smooth="yes"/>
      <point x="473" y="57"/>
      <point x="372" y="-11"/>
      <point x="249" y="-11" type="curve" smooth="yes"/>
      <point x="125" y="-11"/>
      <point x="51" y="57"/>
      <point x="79" y="186" type="curve" smooth="yes"/>
      <point x="188" y="700" type="line"/>
      <point x="368" y="700" type="line"/>
      <point x="260" y="195" type="line" smooth="yes"/>
      <point x="253" y="161"/>
      <point x="261" y="147"/>
      <point x="281" y="147" type="curve" smooth="yes"/>
      <point x="301" y="147"/>
      <point x="316" y="163"/>
      <point x="322" y="195" type="curve" smooth="yes"/>
      <point x="430" y="700" type="line"/>
      <point x="610" y="700" type="line"/>
    </contour>
  </outline>
</glyph>
<glyph name="V" format="2">
  <advance width="516" height="962"/>
  <unicode hex="0056"/>
  <outline>
    <contour>
      <point x="164.82" y="700" type="line"/>
      <point x="342.82" y="700" type="line"/>
      <point x="303.559" y="219" type="line"/>
      <point x="465.82" y="700" type="line"/>
      <point x="645.82" y="700" type="line"/>
      <point x="355" y="0" type="line"/>
      <point x="153" y="0" type="line"/>
    </contour>
  </outline>
</glyph>
<glyph name="W" format="2">
  <advance width="742" height="962"/>
  <unicode hex="0057"/>
  <outline>
    <contour>
      <point x="605" y="700" type="line"/>
      <point x="587" y="425" type="line"/>
      <point x="685" y="700" type="line"/>
      <point x="868" y="700" type="line"/>
      <point x="594" y="0" type="line"/>
      <point x="414" y="0" type="line"/>
      <point x="419" y="231" type="line"/>
      <point x="325" y="0" type="line"/>
      <point x="145" y="0" type="line"/>
      <point x="169" y="700" type="line"/>
      <point x="352" y="700" type="line"/>
      <point x="333" y="425" type="line"/>
      <point x="436" y="700" type="line"/>
    </contour>
  </outline>
  <guideline angle="90" x="130.072" y="0"/>
</glyph>
<glyph name="X" format="1">
  <advance width="629" height="962"/>
  <unicode hex="0058"/>
  <outline>
    <contour>
      <point x="426" y="521" type="line"/>
      <point x="546" y="700" type="line"/>
      <point x="740" y="700" type="line"/>
      <point x="490" y="364" type="line"/>
      <point x="605" y="0" type="line"/>
      <point x="417" y="0" type="line"/>
      <point x="357" y="199" type="line"/>
      <point x="214" y="0" type="line"/>
      <point x="26" y="0" type="line"/>
      <point x="294" y="364" type="line"/>
      <point x="187" y="700" type="line"/>
      <point x="379" y="700" type="line"/>
    </contour>
  </outline>
</glyph>
<glyph name="Z" format="2">
  <advance width="558" height="962"/>
  <unicode hex="005A"/>
  <outline>
    <contour>
      <point x="190" y="700" type="line"/>
      <point x="656" y="700" type="line"/>
      <point x="618" y="520" type="line"/>
      <point x="294.838" y="192.991" type="line"/>
      <point x="281" y="180" type="line"/>
      <point x="554.787" y="179" type="line"/>
      <point x="517" y="0" type="line"/>
      <point x="27" y="0" type="line"/>
      <point x="64" y="175.955" type="line"/>
      <point x="390.524" y="506.363" type="line"/>
      <point x="405" y="520" type="line"/>
      <point x="152.213" y="521" type="line"/>
    </contour>
  </outline>
</glyph>
<glyph name="bracketright" format="2">
  <advance width="308" height="962"/>
  <unicode hex="005D"/>
  <outline>
    <contour>
      <point x="7" y="-115" type="line"/>
      <point x="44.7886" y="53.7119" type="line"/>
      <point x="96.7886" y="63.7119" type="line"/>
      <point x="218.99" y="650" type="line"/>
      <point x="171.99" y="660" type="line"/>
      <point x="205" y="819" type="line"/>
      <point x="443" y="819" type="line"/>
      <point x="245" y="-115" type="line"/>
    </contour>
  </outline>
</glyph>
<glyph name="a" format="2">
  <advance width="452"/>
  <unicode hex="0061"/>
  <outline>
    <contour>
      <point x="311" y="371" type="curve"/>
      <point x="318" y="406"/>
      <point x="285" y="420"/>
      <point x="260" y="420" type="curve"/>
      <point x="305" y="510" type="line"/>
      <point x="466" y="510"/>
      <point x="513" y="461"/>
      <point x="480" y="307" type="curve" smooth="yes"/>
      <point x="415" y="0" type="line"/>
      <point x="358" y="-8"/>
      <point x="300" y="-11"/>
      <point x="233" y="-11" type="curve" smooth="yes"/>
      <point x="119" y="-11"/>
      <point x="35" y="28"/>
      <point x="62" y="156" type="curve" smooth="yes"/>
      <point x="81" y="246" type="line" smooth="yes"/>
      <point x="103" y="348"/>
      <point x="165" y="393"/>
      <point x="238" y="393" type="curve" smooth="yes"/>
      <point x="276" y="393"/>
      <point x="302" y="379"/>
    </contour>
    <contour>
      <point x="286" y="240" type="line"/>
      <point x="283" y="243"/>
      <point x="278" y="245"/>
      <point x="272" y="245" type="curve" smooth="yes"/>
      <point x="265" y="245"/>
      <point x="260" y="240"/>
      <point x="258" y="232" type="curve" smooth="yes"/>
      <point x="238" y="138" type="line" smooth="yes"/>
      <point x="237" y="132"/>
      <point x="242" y="128"/>
      <point x="249" y="128" type="curve" smooth="yes"/>
      <point x="255" y="128"/>
      <point x="263" y="131"/>
      <point x="263" y="131" type="curve"/>
    </contour>
  </outline>
</glyph>
<glyph name="d" format="2">
  <advance width="461" height="962"/>
  <unicode hex="0064"/>
  <outline>
    <contour>
      <point x="416" y="0" type="line"/>
      <point x="355" y="-3"/>
      <point x="296" y="-11"/>
      <point x="237" y="-11" type="curve" smooth="yes"/>
      <point x="123" y="-11"/>
      <point x="36" y="25"/>
      <point x="64" y="156" type="curve" smooth="yes"/>
      <point x="108" y="360" type="line" smooth="yes"/>
      <point x="129" y="462"/>
      <point x="186" y="510"/>
      <point x="261" y="510" type="curve" smooth="yes"/>
      <point x="291" y="510"/>
      <point x="314" y="506"/>
      <point x="341" y="496" type="curve"/>
      <point x="385" y="700" type="line"/>
      <point x="565" y="700" type="line"/>
    </contour>
    <contour>
      <point x="305" y="329" type="line"/>
      <point x="300" y="330"/>
      <point x="294" y="331"/>
      <point x="290" y="331" type="curve" smooth="yes"/>
      <point x="282" y="331"/>
      <point x="278" y="324"/>
      <point x="276" y="313" type="curve" smooth="yes"/>
      <point x="250" y="194" type="line" smooth="yes"/>
      <point x="246" y="175"/>
      <point x="255" y="169"/>
      <point x="262" y="169" type="curve" smooth="yes"/>
      <point x="267" y="169"/>
      <point x="272" y="170"/>
      <point x="272" y="170" type="curve"/>
    </contour>
  </outline>
</glyph>
<glyph name="e" format="1">
  <advance width="445" height="962"/>
  <unicode hex="0065"/>
  <outline>
    <contour>
      <point x="248" y="166" type="line" smooth="yes"/>
      <point x="245" y="152"/>
      <point x="252" y="145"/>
      <point x="275" y="145" type="curve" smooth="yes"/>
      <point x="302" y="145"/>
      <point x="355" y="159"/>
      <point x="385" y="169" type="curve"/>
      <point x="399" y="35" type="line"/>
      <point x="344" y="6"/>
      <point x="272" y="-13"/>
      <point x="207" y="-13" type="curve" smooth="yes"/>
      <point x="107" y="-13"/>
      <point x="40" y="33"/>
      <point x="62" y="135" type="curve" smooth="yes"/>
      <point x="105" y="340" type="line" smooth="yes"/>
      <point x="129" y="453"/>
      <point x="228" y="511"/>
      <point x="340" y="511" type="curve" smooth="yes"/>
      <point x="452" y="511"/>
      <point x="516" y="455"/>
      <point x="492" y="343" type="curve" smooth="yes"/>
      <point x="459" y="189" type="line"/>
      <point x="251" y="177" type="line"/>
    </contour>
    <contour>
      <point x="310" y="333" type="line" smooth="yes"/>
      <point x="313" y="349"/>
      <point x="312" y="358"/>
      <point x="302" y="358" type="curve" smooth="yes"/>
      <point x="292" y="358"/>
      <point x="287" y="349"/>
      <point x="284" y="334" type="curve" smooth="yes"/>
      <point x="280" y="313" type="line"/>
      <point x="306" y="315" type="line"/>
    </contour>
  </outline>
</glyph>
<glyph name="f" format="1">
  <advance width="375" height="962"/>
  <unicode hex="0066"/>
  <outline>
    <contour>
      <point x="418" y="532" type="line"/>
      <point x="408" y="536"/>
      <point x="375" y="540"/>
      <point x="361" y="540" type="curve" smooth="yes"/>
      <point x="342" y="540"/>
      <point x="333" y="528"/>
      <point x="331" y="518" type="curve" smooth="yes"/>
      <point x="327" y="501" type="line"/>
      <point x="432" y="501" type="line"/>
      <point x="355" y="319" type="line"/>
      <point x="289" y="319" type="line"/>
      <point x="221" y="0" type="line"/>
      <point x="40" y="0" type="line"/>
      <point x="151" y="523" type="line" smooth="yes"/>
      <point x="175" y="635"/>
      <point x="230" y="713"/>
      <point x="382" y="713" type="curve" smooth="yes"/>
      <point x="405" y="713"/>
      <point x="468" y="707"/>
      <point x="490" y="697" type="curve"/>
    </contour>
  </outline>
</glyph>
<glyph name="i" format="2">
  <advance width="270"/>
  <unicode hex="0069"/>
  <outline>
    <contour>
      <point x="44" y="0" type="line"/>
      <point x="150" y="501" type="line"/>
      <point x="330" y="501" type="line"/>
      <point x="224" y="0" type="line"/>
    </contour>
    <contour>
      <point x="291" y="740" type="curve" smooth="yes"/>
      <point x="341" y="740"/>
      <point x="374" y="704"/>
      <point x="363" y="652" type="curve" smooth="yes"/>
      <point x="352" y="602"/>
      <point x="303" y="562"/>
      <point x="253" y="562" type="curve" smooth="yes"/>
      <point x="201" y="562"/>
      <point x="172" y="602"/>
      <point x="183" y="652" type="curve" smooth="yes"/>
      <point x="194" y="704"/>
      <point x="239" y="740"/>
    </contour>
  </outline>
</glyph>
<glyph name="k" format="2">
  <advance width="510"/>
  <unicode hex="006B"/>
  <outline>
    <contour>
      <point x="424" y="267" type="line"/>
      <point x="486" y="0" type="line"/>
      <point x="281" y="0" type="line"/>
      <point x="266" y="145" type="line"/>
      <point x="249" y="131" type="line"/>
      <point x="221" y="0" type="line"/>
      <point x="41" y="0" type="line"/>
      <point x="190" y="700" type="line"/>
      <point x="370" y="700" type="line"/>
      <point x="293" y="337" type="line"/>
      <point x="413" y="521" type="line"/>
      <point x="564" y="447" type="line"/>
    </contour>
  </outline>
</glyph>
<glyph name="m" format="1">
  <advance width="721" height="962"/>
  <unicode hex="006D"/>
  <outline>
    <contour>
      <point x="571" y="312" type="line" smooth="yes"/>
      <point x="574" y="325"/>
      <point x="567" y="333"/>
      <point x="556" y="333" type="curve" smooth="yes"/>
      <point x="543" y="333"/>
      <point x="525" y="325"/>
      <point x="518" y="321" type="curve"/>
      <point x="519" y="319"/>
      <point x="518" y="315"/>
      <point x="517" y="312" type="curve" smooth="yes"/>
      <point x="451" y="0" type="line"/>
      <point x="274" y="0" type="line"/>
      <point x="341" y="313" type="line" smooth="yes"/>
      <point x="343" y="326"/>
      <point x="336" y="333"/>
      <point x="323" y="333" type="curve" smooth="yes"/>
      <point x="308" y="333"/>
      <point x="294" y="326"/>
      <point x="288" y="323" type="curve"/>
      <point x="219" y="0" type="line"/>
      <point x="39" y="0" type="line"/>
      <point x="145" y="501" type="line"/>
      <point x="325" y="501" type="line"/>
      <point x="320" y="477" type="line"/>
      <point x="352" y="497"/>
      <point x="418" y="509"/>
      <point x="447" y="509" type="curve" smooth="yes"/>
      <point x="480" y="509"/>
      <point x="512" y="497"/>
      <point x="527" y="461" type="curve"/>
      <point x="567" y="489"/>
      <point x="610" y="509"/>
      <point x="653" y="509" type="curve" smooth="yes"/>
      <point x="732" y="509"/>
      <point x="785" y="474"/>
      <point x="757" y="345" type="curve" smooth="yes"/>
      <point x="684" y="0" type="line"/>
      <point x="505" y="0" type="line"/>
    </contour>
  </outline>
</glyph>
<glyph name="p" format="2">
  <advance width="464" height="962"/>
  <unicode hex="0070"/>
  <outline>
    <contour>
      <point x="465" y="177" type="line" smooth="yes"/>
      <point x="438" y="54"/>
      <point x="369" y="-12"/>
      <point x="290" y="-12" type="curve" smooth="yes"/>
      <point x="250" y="-12"/>
      <point x="236" y="-7"/>
      <point x="220" y="0" type="curve"/>
      <point x="175" y="-214" type="line"/>
      <point x="-1" y="-192" type="line"/>
      <point x="146" y="501" type="line"/>
      <point x="326" y="501" type="line"/>
      <point x="322" y="479" type="line"/>
      <point x="333" y="491"/>
      <point x="377" y="511"/>
      <point x="419" y="511" type="curve" smooth="yes"/>
      <point x="506" y="511"/>
      <point x="522" y="448"/>
      <point x="501" y="346" type="curve" smooth="yes"/>
    </contour>
    <contour>
      <point x="315" y="318" type="line" smooth="yes"/>
      <point x="317" y="331"/>
      <point x="311" y="334"/>
      <point x="305" y="334" type="curve" smooth="yes"/>
      <point x="298" y="334"/>
      <point x="293" y="331"/>
      <point x="290" y="329" type="curve"/>
      <point x="258" y="178" type="line" smooth="yes"/>
      <point x="256" y="170"/>
      <point x="264" y="166"/>
      <point x="270" y="166" type="curve" smooth="yes"/>
      <point x="278" y="166"/>
      <point x="284" y="173"/>
      <point x="286" y="183" type="curve" smooth="yes"/>
    </contour>
  </outline>
</glyph>
<glyph name="r" format="2">
  <advance width="374"/>
  <unicode hex="0072"/>
  <outline>
    <contour>
      <point x="406" y="319" type="line"/>
      <point x="406" y="319"/>
      <point x="396" y="326"/>
      <point x="373" y="326" type="curve" smooth="yes"/>
      <point x="344" y="326"/>
      <point x="314" y="318"/>
      <point x="282" y="298" type="curve"/>
      <point x="219" y="0" type="line"/>
      <point x="39" y="0" type="line"/>
      <point x="145" y="501" type="line"/>
      <point x="325" y="501" type="line"/>
      <point x="321" y="481" type="line"/>
      <point x="348" y="503"/>
      <point x="379" y="516"/>
      <point x="407" y="516" type="curve" smooth="yes"/>
      <point x="427" y="516"/>
      <point x="442" y="509"/>
      <point x="454" y="501" type="curve"/>
    </contour>
  </outline>
</glyph>
<glyph name="s" format="2">
  <advance width="443" height="962"/>
  <unicode hex="0073"/>
  <anchor x="259" y="589" name="top"/>
  <outline>
    <contour>
      <point x="395" y="332" type="line"/>
      <point x="383" y="338"/>
      <point x="344" y="349"/>
      <point x="315" y="349" type="curve" smooth="yes"/>
      <point x="304" y="349"/>
      <point x="300" y="348"/>
      <point x="299" y="343" type="curve" smooth="yes"/>
      <point x="292" y="312"/>
      <point x="488" y="331"/>
      <point x="452" y="160" type="curve" smooth="yes"/>
      <point x="427" y="43"/>
      <point x="315" y="-15"/>
      <point x="221" y="-15" type="curve" smooth="yes"/>
      <point x="148" y="-15"/>
      <point x="83" y="18"/>
      <point x="41" y="77" type="curve"/>
      <point x="142" y="191" type="line"/>
      <point x="160" y="173"/>
      <point x="201" y="156"/>
      <point x="231" y="156" type="curve" smooth="yes"/>
      <point x="243" y="156"/>
      <point x="252" y="157"/>
      <point x="254" y="165" type="curve" smooth="yes"/>
      <point x="259" y="189"/>
      <point x="87" y="191"/>
      <point x="121" y="352" type="curve" smooth="yes"/>
      <point x="142" y="450"/>
      <point x="218" y="514"/>
      <point x="335" y="514" type="curve" smooth="yes"/>
      <point x="395" y="514"/>
      <point x="447" y="491"/>
      <point x="476" y="467" type="curve"/>
    </contour>
  </outline>
  <guideline angle="90" x="-342.807" y="0"/>
  <guideline angle="0" x="0" y="345"/>
</glyph>
<glyph name="t" format="1">
  <advance width="335" height="962"/>
  <unicode hex="0074"/>
  <outline>
    <contour>
      <point x="263" y="204" type="line" smooth="yes"/>
      <point x="255" y="164"/>
      <point x="275" y="153"/>
      <point x="321" y="153" type="curve"/>
      <point x="221" y="-13" type="line"/>
      <point x="105" y="-11"/>
      <point x="52" y="56"/>
      <point x="76" y="169" type="curve" smooth="yes"/>
      <point x="189" y="700" type="line"/>
      <point x="368" y="700" type="line"/>
      <point x="326" y="500" type="line"/>
      <point x="413" y="500" type="line"/>
      <point x="350" y="321" type="line"/>
      <point x="288" y="321" type="line"/>
    </contour>
  </outline>
</glyph>
<glyph name="braceleft" format="2">
  <advance width="361" height="962"/>
  <unicode hex="007B"/>
  <outline>
    <contour>
      <point x="396.147" y="518" type="line" smooth="yes"/>
      <point x="382" y="444.613"/>
      <point x="347.013" y="397.681"/>
      <point x="285.147" y="353" type="curve"/>
      <point x="333.204" y="304.943"/>
      <point x="339.647" y="251.978"/>
      <point x="326.147" y="190" type="curve" smooth="yes"/>
      <point x="304.147" y="89" type="line" smooth="yes"/>
      <point x="287.825" y="14.0693"/>
      <point x="309.147" y="-7"/>
      <point x="331.147" y="-21" type="curve"/>
      <point x="241" y="-128" type="line"/>
      <point x="235" y="-128"/>
      <point x="89" y="-85"/>
      <point x="123" y="76" type="curve" smooth="yes"/>
      <point x="147" y="190" type="line" smooth="yes"/>
      <point x="160.339" y="252.248"/>
      <point x="159.72" y="300.104"/>
      <point x="110" y="346" type="curve" smooth="yes"/>
      <point x="101" y="353" type="line"/>
      <point x="113" y="361" type="line" smooth="yes"/>
      <point x="174.89" y="402.818"/>
      <point x="202.022" y="445.606"/>
      <point x="217" y="518" type="curve" smooth="yes"/>
      <point x="241" y="631" type="line" smooth="yes"/>
      <point x="275" y="792"/>
      <point x="417" y="824"/>
      <point x="421" y="824" type="curve"/>
      <point x="486.147" y="711" type="line"/>
      <point x="458.147" y="697"/>
      <point x="426.663" y="676.301"/>
      <point x="412.147" y="601" type="curve" smooth="yes"/>
    </contour>
  </outline>
</glyph>
<glyph name="exclamdown" format="2">
  <advance width="195" height="962"/>
  <unicode hex="00A1"/>
  <outline>
    <contour>
      <point x="188" y="60" type="line"/>
      <point x="178" y="14"/>
      <point x="145" y="-18"/>
      <point x="94" y="-18" type="curve" smooth="yes"/>
      <point x="45" y="-18"/>
      <point x="27" y="13"/>
      <point x="37" y="61" type="curve"/>
      <point x="163" y="545" type="line"/>
      <point x="263" y="545" type="line"/>
    </contour>
    <contour>
      <point x="310" y="636" type="curve" smooth="yes"/>
      <point x="301" y="594"/>
      <point x="259" y="559"/>
      <point x="216" y="559" type="curve" smooth="yes"/>
      <point x="172" y="559"/>
      <point x="145" y="594"/>
      <point x="154" y="636" type="curve" smooth="yes"/>
      <point x="163" y="679"/>
      <point x="205" y="714"/>
      <point x="249" y="714" type="curve" smooth="yes"/>
      <point x="292" y="714"/>
      <point x="319" y="679"/>
    </contour>
  </outline>
</glyph>
<glyph name="currency" format="2">
  <advance width="499"/>
  <unicode hex="00A4"/>
  <outline>
    <contour>
      <point x="452" y="350" type="line"/>
      <point x="459" y="330"/>
      <point x="460" y="308"/>
      <point x="455" y="284" type="curve" smooth="yes"/>
      <point x="450" y="258"/>
      <point x="440" y="238"/>
      <point x="424" y="218" type="curve"/>
      <point x="494" y="132" type="line"/>
      <point x="415" y="68" type="line"/>
      <point x="347" y="154" type="line"/>
      <point x="327" y="144"/>
      <point x="301" y="138"/>
      <point x="278" y="138" type="curve" smooth="yes"/>
      <point x="254" y="138"/>
      <point x="234" y="145"/>
      <point x="216" y="155" type="curve"/>
      <point x="111" y="68" type="line"/>
      <point x="61" y="132" type="line"/>
      <point x="166" y="218" type="line"/>
      <point x="161" y="238"/>
      <point x="159" y="258"/>
      <point x="164" y="284" type="curve" smooth="yes"/>
      <point x="169" y="307"/>
      <point x="180" y="331"/>
      <point x="194" y="349" type="curve"/>
      <point x="126" y="436" type="line"/>
      <point x="203" y="500" type="line"/>
      <point x="271" y="412" type="line"/>
      <point x="293" y="424"/>
      <point x="316" y="429"/>
      <point x="340" y="429" type="curve" smooth="yes"/>
      <point x="364" y="429"/>
      <point x="385" y="423"/>
      <point x="403" y="412" type="curve"/>
      <point x="507" y="500" type="line"/>
      <point x="559" y="436" type="line"/>
    </contour>
    <contour>
      <point x="298" y="232" type="curve" smooth="yes"/>
      <point x="328" y="232"/>
      <point x="355" y="255"/>
      <point x="361" y="284" type="curve" smooth="yes"/>
      <point x="368" y="314"/>
      <point x="350" y="335"/>
      <point x="320" y="335" type="curve" smooth="yes"/>
      <point x="292" y="335"/>
      <point x="265" y="314"/>
      <point x="258" y="284" type="curve" smooth="yes"/>
      <point x="252" y="255"/>
      <point x="270" y="232"/>
    </contour>
  </outline>
</glyph>
<glyph name="section" format="2">
  <advance width="467"/>
  <unicode hex="00A7"/>
  <outline>
    <contour>
      <point x="434.748" y="519" type="line"/>
      <point x="422.748" y="525"/>
      <point x="383.748" y="536"/>
      <point x="354.748" y="536" type="curve" smooth="yes"/>
      <point x="343.748" y="536"/>
      <point x="339.854" y="534.978"/>
      <point x="338.748" y="530" type="curve" smooth="yes"/>
      <point x="331.854" y="498.976"/>
      <point x="527.748" y="518"/>
      <point x="491.748" y="347" type="curve" smooth="yes"/>
      <point x="483.717" y="309.51"/>
      <point x="466.763" y="278.07"/>
      <point x="444.335" y="252.648" type="curve"/>
      <point x="456.04" y="230.281"/>
      <point x="460.519" y="200.473"/>
      <point x="451.998" y="160" type="curve" smooth="yes"/>
      <point x="426.998" y="43"/>
      <point x="314.998" y="-15"/>
      <point x="220.998" y="-15" type="curve" smooth="yes"/>
      <point x="147.998" y="-15"/>
      <point x="82.9981" y="18"/>
      <point x="40.9981" y="77" type="curve"/>
      <point x="141.998" y="191" type="line"/>
      <point x="159.998" y="173"/>
      <point x="200.998" y="156"/>
      <point x="230.998" y="156" type="curve" smooth="yes"/>
      <point x="242.998" y="156"/>
      <point x="252.236" y="156.944"/>
      <point x="253.998" y="165" type="curve" smooth="yes"/>
      <point x="259.237" y="188.949"/>
      <point x="86.9981" y="191"/>
      <point x="120.998" y="352" type="curve" smooth="yes"/>
      <point x="129.188" y="390.155"/>
      <point x="145.679" y="423.138"/>
      <point x="169.679" y="449.215" type="curve"/>
      <point x="157.742" y="472.814"/>
      <point x="152.958" y="502.113"/>
      <point x="160.748" y="539" type="curve" smooth="yes"/>
      <point x="181.748" y="637"/>
      <point x="257.748" y="701"/>
      <point x="374.748" y="701" type="curve" smooth="yes"/>
      <point x="434.748" y="701"/>
      <point x="486.748" y="678"/>
      <point x="515.748" y="654" type="curve"/>
    </contour>
    <contour>
      <point x="326.059" y="324.04" type="curve"/>
      <point x="329.752" y="324.885"/>
      <point x="334.278" y="327.088"/>
      <point x="335.698" y="333" type="curve" smooth="yes"/>
      <point x="336.818" y="337.663"/>
      <point x="311.544" y="350.07"/>
      <point x="299.845" y="355.356" type="curve"/>
      <point x="293.597" y="354.045"/>
      <point x="290.673" y="350.813"/>
      <point x="289.848" y="347" type="curve" smooth="yes"/>
      <point x="288.457" y="340.566"/>
      <point x="313.957" y="328.303"/>
    </contour>
  </outline>
  <guideline angle="90" x="-303.059" y="0"/>
  <guideline angle="0" x="0" y="532"/>
  <guideline angle="90" x="-342.807" y="0"/>
  <guideline angle="0" x="0" y="345"/>
</glyph>
<glyph name="paragraph" format="2">
  <advance width="746" height="962"/>
  <unicode hex="00B6"/>
  <outline>
    <contour>
      <point x="302" y="196" type="line" smooth="yes"/>
      <point x="189" y="196"/>
      <point x="81" y="237"/>
      <point x="128" y="454" type="curve" smooth="yes"/>
      <point x="169" y="651"/>
      <point x="299" y="702"/>
      <point x="409" y="702" type="curve" smooth="yes"/>
      <point x="849" y="702" type="line"/>
      <point x="700" y="1" type="line"/>
      <point x="520" y="1" type="line"/>
      <point x="634" y="536" type="line"/>
      <point x="604" y="536" type="line"/>
      <point x="490" y="1" type="line"/>
      <point x="310" y="1" type="line"/>
      <point x="352" y="196" type="line"/>
    </contour>
    <contour>
      <point x="414" y="536" type="line" smooth="yes"/>
      <point x="337" y="536"/>
      <point x="313" y="525"/>
      <point x="297" y="453" type="curve" smooth="yes"/>
      <point x="281" y="375"/>
      <point x="300" y="360"/>
      <point x="377" y="360" type="curve" smooth="yes"/>
      <point x="387" y="360" type="line"/>
      <point x="424" y="536" type="line"/>
    </contour>
  </outline>
</glyph>
<glyph name="ordmasculine" format="2">
	<advance width="341"/>
	<unicode hex="00BA"/>
	<outline>
		<contour>
			<point x="409" y="504" type="line" smooth="yes"/>
			<point x="394" y="429"/>
			<point x="340" y="379"/>
			<point x="248" y="379" type="curve" smooth="yes"/>
			<point x="148" y="379"/>
			<point x="125" y="439"/>
			<point x="138" y="504" type="curve" smooth="yes"/>
			<point x="155" y="588" type="line" smooth="yes"/>
			<point x="171" y="669"/>
			<point x="227" y="711"/>
			<point x="320" y="711" type="curve" smooth="yes"/>
			<point x="409" y="711"/>
			<point x="442" y="665"/>
			<point x="426" y="588" type="curve" smooth="yes"/>
		</contour>
		<contour>
			<point x="339" y="584" type="line" smooth="yes"/>
			<point x="344" y="610"/>
			<point x="334" y="626"/>
			<point x="299" y="626" type="curve" smooth="yes"/>
			<point x="273" y="626"/>
			<point x="245" y="612"/>
			<point x="240" y="584" type="curve" smooth="yes"/>
			<point x="225" y="507" type="line" smooth="yes"/>
			<point x="220" y="483"/>
			<point x="231" y="465"/>
			<point x="266" y="465" type="curve" smooth="yes"/>
			<point x="303" y="465"/>
			<point x="319" y="483"/>
			<point x="324" y="507" type="curve" smooth="yes"/>
		</contour>
	</outline>
</glyph>
<glyph name="guillemotright" format="2">
  <advance width="582" height="962"/>
  <unicode hex="00BB"/>
  <outline>
    <contour>
      <point x="228" y="279" type="line"/>
      <point x="142" y="382" type="line"/>
      <point x="231" y="456" type="line"/>
      <point x="378" y="268" type="line"/>
      <point x="151" y="80" type="line"/>
      <point x="85" y="162" type="line"/>
    </contour>
    <contour>
      <point x="446" y="280" type="line"/>
      <point x="364" y="383" type="line"/>
      <point x="451" y="456" type="line"/>
      <point x="599" y="268" type="line"/>
      <point x="371" y="80" type="line"/>
      <point x="302" y="162" type="line"/>
    </contour>
  </outline>
</glyph>
<glyph name="questiondown" format="2">
  <advance width="429"/>
  <unicode hex="00BF"/>
  <outline>
    <contour>
      <point x="436" y="184" type="line"/>
      <point x="408" y="52"/>
      <point x="326" y="-18"/>
      <point x="212" y="-18" type="curve" smooth="yes"/>
      <point x="98" y="-18"/>
      <point x="34" y="48"/>
      <point x="60" y="169" type="curve" smooth="yes"/>
      <point x="76" y="245"/>
      <point x="113" y="284"/>
      <point x="163" y="336" type="curve" smooth="yes"/>
      <point x="221" y="397"/>
      <point x="228" y="439"/>
      <point x="237" y="481" type="curve" smooth="yes"/>
      <point x="246" y="522" type="line"/>
      <point x="425" y="522" type="line"/>
      <point x="416" y="479" type="line" smooth="yes"/>
      <point x="398" y="393"/>
      <point x="369" y="345"/>
      <point x="320" y="291" type="curve" smooth="yes"/>
      <point x="277" y="245"/>
      <point x="244" y="214"/>
      <point x="239" y="186" type="curve" smooth="yes"/>
      <point x="233" y="160"/>
      <point x="236" y="155"/>
      <point x="245" y="155" type="curve" smooth="yes"/>
      <point x="251" y="155"/>
      <point x="260" y="159"/>
      <point x="265" y="184" type="curve"/>
    </contour>
    <contour>
      <point x="376" y="710" type="curve" smooth="yes"/>
      <point x="420" y="710"/>
      <point x="446" y="675"/>
      <point x="437" y="632" type="curve" smooth="yes"/>
      <point x="428" y="590"/>
      <point x="387" y="555"/>
      <point x="343" y="555" type="curve" smooth="yes"/>
      <point x="300" y="555"/>
      <point x="272" y="590"/>
      <point x="281" y="632" type="curve" smooth="yes"/>
      <point x="290" y="675"/>
      <point x="333" y="710"/>
    </contour>
  </outline>
</glyph>
<glyph name="AE" format="1">
  <advance width="766" height="962"/>
  <unicode hex="00C6"/>
  <outline>
    <contour>
      <point x="399" y="0" type="line"/>
      <point x="430" y="148" type="line"/>
      <point x="298" y="148" type="line"/>
      <point x="213" y="0" type="line"/>
      <point x="21" y="0" type="line"/>
      <point x="442" y="700" type="line"/>
      <point x="883" y="700" type="line"/>
      <point x="849" y="540" type="line"/>
      <point x="693" y="540" type="line"/>
      <point x="671" y="438" type="line"/>
      <point x="773" y="438" type="line"/>
      <point x="706" y="280" type="line"/>
      <point x="638" y="280" type="line"/>
      <point x="616" y="179" type="line"/>
      <point x="770" y="179" type="line"/>
      <point x="732" y="0" type="line"/>
    </contour>
    <contour>
      <point x="388" y="306" type="line"/>
      <point x="463" y="306" type="line"/>
      <point x="503" y="495" type="line"/>
      <point x="499" y="495" type="line"/>
    </contour>
  </outline>
</glyph>
<glyph name="Thorn" format="1">
  <advance width="509" height="962"/>
  <unicode hex="00DE"/>
  <outline>
    <contour>
      <point x="390" y="614" type="line" smooth="yes"/>
      <point x="495" y="614"/>
      <point x="599" y="560"/>
      <point x="553" y="352" type="curve" smooth="yes"/>
      <point x="505" y="134"/>
      <point x="386" y="86"/>
      <point x="278" y="86" type="curve" smooth="yes"/>
      <point x="240" y="86" type="line"/>
      <point x="221" y="0" type="line"/>
      <point x="41" y="0" type="line"/>
      <point x="190" y="700" type="line"/>
      <point x="370" y="700" type="line"/>
      <point x="352" y="614" type="line"/>
    </contour>
    <contour>
      <point x="274" y="246" type="line"/>
      <point x="297" y="246" type="line" smooth="yes"/>
      <point x="335" y="246"/>
      <point x="355" y="272"/>
      <point x="372" y="350" type="curve" smooth="yes"/>
      <point x="387" y="422"/>
      <point x="377" y="451"/>
      <point x="340" y="451" type="curve" smooth="yes"/>
      <point x="317" y="451" type="line"/>
    </contour>
  </outline>
</glyph>
<glyph name="eth" format="2">
  <advance width="443"/>
  <unicode hex="00F0"/>
  <outline>
    <contour>
      <point x="428" y="669" type="curve"/>
      <point x="477" y="709" type="line"/>
      <point x="516" y="658" type="line"/>
      <point x="482" y="630" type="line"/>
      <point x="515" y="594"/>
      <point x="530" y="541"/>
      <point x="517" y="481" type="curve" smooth="yes"/>
      <point x="455" y="187" type="line" smooth="yes"/>
      <point x="428" y="60"/>
      <point x="344" y="-9"/>
      <point x="215" y="-9" type="curve" smooth="yes"/>
      <point x="94" y="-9"/>
      <point x="42" y="65"/>
      <point x="68" y="187" type="curve" smooth="yes"/>
      <point x="80" y="246" type="line" smooth="yes"/>
      <point x="106" y="369"/>
      <point x="173" y="433"/>
      <point x="262" y="433" type="curve" smooth="yes"/>
      <point x="285" y="433"/>
      <point x="309" y="430"/>
      <point x="325" y="423" type="curve"/>
      <point x="337" y="481" type="line" smooth="yes"/>
      <point x="339" y="492"/>
      <point x="340" y="502"/>
      <point x="339" y="511" type="curve"/>
      <point x="300" y="479" type="line"/>
      <point x="260" y="530" type="line"/>
      <point x="306" y="568" type="line"/>
      <point x="288" y="583"/>
      <point x="269" y="589"/>
      <point x="270" y="589" type="curve"/>
      <point x="335" y="702" type="line"/>
      <point x="368" y="694"/>
      <point x="400" y="683"/>
    </contour>
    <contour>
      <point x="258" y="174" type="curve" smooth="yes"/>
      <point x="267" y="174"/>
      <point x="274" y="183"/>
      <point x="277" y="197" type="curve" smooth="yes"/>
      <point x="291" y="263" type="line" smooth="yes"/>
      <point x="294" y="276"/>
      <point x="290" y="281"/>
      <point x="281" y="281" type="curve" smooth="yes"/>
      <point x="273" y="281"/>
      <point x="265" y="275"/>
      <point x="263" y="263" type="curve" smooth="yes"/>
      <point x="249" y="197" type="line" smooth="yes"/>
      <point x="246" y="183"/>
      <point x="249" y="174"/>
    </contour>
  </outline>
</glyph>
<glyph name="divide" format="2">
  <advance width="381" height="962"/>
  <unicode hex="00F7"/>
  <outline>
    <contour>
      <point x="97" y="321" type="line"/>
      <point x="122" y="437" type="line"/>
      <point x="443" y="437" type="line"/>
      <point x="418" y="321" type="line"/>
    </contour>
    <contour>
      <point x="326" y="638" type="curve" smooth="yes"/>
      <point x="374" y="638"/>
      <point x="407" y="602"/>
      <point x="397" y="553" type="curve" smooth="yes"/>
      <point x="386" y="503"/>
      <point x="337" y="464"/>
      <point x="289" y="464" type="curve" smooth="yes"/>
      <point x="239" y="464"/>
      <point x="208" y="503"/>
      <point x="219" y="553" type="curve" smooth="yes"/>
      <point x="229" y="602"/>
      <point x="276" y="638"/>
    </contour>
    <contour>
      <point x="253" y="296" type="curve" smooth="yes"/>
      <point x="301" y="296"/>
      <point x="334" y="260"/>
      <point x="324" y="211" type="curve" smooth="yes"/>
      <point x="313" y="161"/>
      <point x="264" y="122"/>
      <point x="216" y="122" type="curve" smooth="yes"/>
      <point x="166" y="122"/>
      <point x="135" y="161"/>
      <point x="146" y="211" type="curve" smooth="yes"/>
      <point x="156" y="260"/>
      <point x="203" y="296"/>
    </contour>
  </outline>
</glyph>
<glyph name="thorn" format="1">
  <advance width="464" height="962"/>
  <unicode hex="00FE"/>
  <outline>
    <contour>
      <point x="465" y="177" type="line" smooth="yes"/>
      <point x="438" y="54"/>
      <point x="369" y="-12"/>
      <point x="290" y="-12" type="curve" smooth="yes"/>
      <point x="250" y="-12"/>
      <point x="236" y="-7"/>
      <point x="220" y="0" type="curve"/>
      <point x="175" y="-214" type="line"/>
      <point x="-1" y="-192" type="line"/>
      <point x="188" y="700" type="line"/>
      <point x="368" y="700" type="line"/>
      <point x="322" y="479" type="line"/>
      <point x="333" y="491"/>
      <point x="377" y="511"/>
      <point x="419" y="511" type="curve" smooth="yes"/>
      <point x="506" y="511"/>
      <point x="522" y="448"/>
      <point x="501" y="346" type="curve" smooth="yes"/>
    </contour>
    <contour>
      <point x="315" y="318" type="line"/>
      <point x="317" y="331"/>
      <point x="311" y="334"/>
      <point x="305" y="334" type="curve" smooth="yes"/>
      <point x="298" y="334"/>
      <point x="293" y="331"/>
      <point x="290" y="329" type="curve"/>
      <point x="258" y="178" type="line" smooth="yes"/>
      <point x="256" y="170"/>
      <point x="264" y="166"/>
      <point x="270" y="166" type="curve" smooth="yes"/>
      <point x="278" y="166"/>
      <point x="284" y="173"/>
      <point x="286" y="183" type="curve" smooth="yes"/>
    </contour>
  </outline>
</glyph>
<glyph name="Hbar" format="1">
  <advance width="516" height="962"/>
  <unicode hex="0126"/>
  <outline>
    <component base="H"/>
    <contour>
      <point x="627" y="526" type="line"/>
      <point x="111" y="526" type="line"/>
      <point x="135" y="642" type="line"/>
      <point x="651" y="642" type="line"/>
    </contour>
  </outline>
</glyph>
<glyph name="ij" format="1">
  <advance width="453" height="962"/>
  <unicode hex="0133"/>
  <outline>
    <contour>
      <point x="291" y="741" type="curve" smooth="yes"/>
      <point x="341" y="741"/>
      <point x="375" y="704"/>
      <point x="364" y="653" type="curve" smooth="yes"/>
      <point x="353" y="601"/>
      <point x="302" y="561"/>
      <point x="252" y="561" type="curve" smooth="yes"/>
      <point x="200" y="561"/>
      <point x="169" y="601"/>
      <point x="180" y="653" type="curve" smooth="yes"/>
      <point x="191" y="704"/>
      <point x="239" y="741"/>
    </contour>
    <contour>
      <point x="569" y="653" type="curve" smooth="yes"/>
      <point x="558" y="601"/>
      <point x="507" y="561"/>
      <point x="457" y="561" type="curve" smooth="yes"/>
      <point x="405" y="561"/>
      <point x="374" y="601"/>
      <point x="385" y="653" type="curve" smooth="yes"/>
      <point x="396" y="704"/>
      <point x="444" y="741"/>
      <point x="496" y="741" type="curve" smooth="yes"/>
      <point x="546" y="741"/>
      <point x="580" y="704"/>
    </contour>
    <contour>
      <point x="357" y="503" type="line"/>
      <point x="537" y="503" type="line"/>
      <point x="417" y="-59" type="line" smooth="yes"/>
      <point x="397" y="-155"/>
      <point x="325" y="-214"/>
      <point x="205" y="-214" type="curve"/>
      <point x="182" y="-62" type="line"/>
      <point x="215" y="-62"/>
      <point x="240" y="-46"/>
      <point x="247" y="-15" type="curve" smooth="yes"/>
      <point x="252" y="9" type="line"/>
      <point x="242" y="3"/>
      <point x="205" y="-6"/>
      <point x="154" y="-6" type="curve" smooth="yes"/>
      <point x="99" y="-6"/>
      <point x="49" y="30"/>
      <point x="77" y="159" type="curve" smooth="yes"/>
      <point x="150" y="503" type="line"/>
      <point x="330" y="503" type="line"/>
      <point x="263" y="190" type="line" smooth="yes"/>
      <point x="261" y="178"/>
      <point x="264" y="170"/>
      <point x="272" y="170" type="curve" smooth="yes"/>
      <point x="280" y="170"/>
      <point x="288" y="181"/>
      <point x="291" y="194" type="curve" smooth="yes"/>
    </contour>
  </outline>
</glyph>
<glyph name="Eng" format="1">
  <advance width="579" height="962"/>
  <unicode hex="014A"/>
  <outline>
    <contour>
      <point x="535" y="-7" type="line" smooth="yes"/>
      <point x="503" y="-156"/>
      <point x="384" y="-214"/>
      <point x="258" y="-214" type="curve"/>
      <point x="252" y="-76" type="line"/>
      <point x="294" y="-78"/>
      <point x="341" y="-55"/>
      <point x="350" y="-14" type="curve" smooth="yes"/>
      <point x="353" y="0" type="line"/>
      <point x="284" y="296" type="line"/>
      <point x="222" y="0" type="line"/>
      <point x="41" y="0" type="line"/>
      <point x="190" y="700" type="line"/>
      <point x="371" y="700" type="line"/>
      <point x="436" y="393" type="line"/>
      <point x="502" y="700" type="line"/>
      <point x="685" y="700" type="line"/>
    </contour>
  </outline>
</glyph>
<glyph name="Tbar" format="2">
  <advance width="432" height="962"/>
  <unicode hex="0166"/>
  <outline>
    <component base="T"/>
    <contour>
      <point x="103" y="414" type="line"/>
      <point x="505" y="414" type="line"/>
      <point x="480" y="297" type="line"/>
      <point x="78" y="297" type="line"/>
    </contour>
  </outline>
</glyph>
<glyph name="dotlessj" format="1">
  <advance width="316" height="962"/>
  <unicode hex="0237"/>
  <outline>
    <contour>
      <point x="273" y="-21" type="line" smooth="yes"/>
      <point x="249" y="-134"/>
      <point x="151" y="-216"/>
      <point x="8" y="-216" type="curve"/>
      <point x="5" y="-90" type="line"/>
      <point x="48" y="-87"/>
      <point x="84" y="-63"/>
      <point x="94" y="-14" type="curve" smooth="yes"/>
      <point x="172" y="353" type="line"/>
      <point x="105" y="361" type="line"/>
      <point x="134" y="501" type="line"/>
      <point x="383" y="501" type="line"/>
    </contour>
  </outline>
</glyph>
<glyph name="dotaccent" format="1">
  <advance width="267" height="962"/>
  <unicode hex="02D9"/>
  <outline>
    <contour>
      <point x="305" y="804" type="curve" smooth="yes"/>
      <point x="353" y="804"/>
      <point x="386" y="768"/>
      <point x="376" y="719" type="curve" smooth="yes"/>
      <point x="365" y="669"/>
      <point x="316" y="630"/>
      <point x="268" y="630" type="curve" smooth="yes"/>
      <point x="218" y="630"/>
      <point x="187" y="669"/>
      <point x="198" y="719" type="curve" smooth="yes"/>
      <point x="208" y="768"/>
      <point x="255" y="804"/>
    </contour>
  </outline>
</glyph>
<glyph name="hungarumlaut" format="2">
  <advance width="267"/>
  <unicode hex="02DD"/>
  <outline>
    <contour>
      <point x="290" y="638" type="curve" smooth="yes"/>
      <point x="223" y="571" type="line"/>
      <point x="134" y="571" type="line"/>
      <point x="190" y="688" type="line" smooth="yes"/>
      <point x="207" y="723"/>
      <point x="258" y="758"/>
      <point x="297" y="735" type="curve" smooth="yes"/>
      <point x="334" y="714"/>
      <point x="316" y="665"/>
    </contour>
    <contour>
      <point x="444" y="638" type="curve" smooth="yes"/>
      <point x="377" y="571" type="line"/>
      <point x="288" y="571" type="line"/>
      <point x="344" y="688" type="line" smooth="yes"/>
      <point x="361" y="723"/>
      <point x="412" y="758"/>
      <point x="451" y="735" type="curve" smooth="yes"/>
      <point x="488" y="714"/>
      <point x="470" y="665"/>
    </contour>
  </outline>
</glyph>
<glyph name="gravecomb" format="2">
  <advance width="267"/>
  <unicode hex="0300"/>
  <outline>
    <contour>
      <point x="302.096" y="706" type="curve" smooth="yes"/>
      <point x="308.221" y="589" type="line"/>
      <point x="219.221" y="589" type="line"/>
      <point x="181.466" y="656" type="line" smooth="yes"/>
      <point x="166.206" y="683"/>
      <point x="169.623" y="732"/>
      <point x="215.088" y="753" type="curve" smooth="yes"/>
      <point x="263.978" y="776"/>
      <point x="300.537" y="741"/>
    </contour>
  </outline>
</glyph>
<glyph name="acutecomb" format="2">
  <advance width="267" height="962"/>
  <unicode hex="0301"/>
  <outline>
    <contour>
      <point x="367" y="665" type="curve" smooth="yes"/>
      <point x="301" y="598" type="line"/>
      <point x="212" y="598" type="line"/>
      <point x="268" y="715" type="line" smooth="yes"/>
      <point x="284" y="750"/>
      <point x="336" y="785"/>
      <point x="375" y="762" type="curve" smooth="yes"/>
      <point x="412" y="741"/>
      <point x="394" y="692"/>
    </contour>
  </outline>
</glyph>
<glyph name="dotaccentcomb" format="1">
  <advance width="267" height="962"/>
  <unicode hex="0307"/>
  <outline>
    <contour>
      <point x="305" y="804" type="curve" smooth="yes"/>
      <point x="353" y="804"/>
      <point x="387" y="768"/>
      <point x="376" y="719" type="curve" smooth="yes"/>
      <point x="365" y="669"/>
      <point x="316" y="630"/>
      <point x="268" y="630" type="curve" smooth="yes"/>
      <point x="218" y="630"/>
      <point x="187" y="669"/>
      <point x="198" y="719" type="curve" smooth="yes"/>
      <point x="209" y="768"/>
      <point x="255" y="804"/>
    </contour>
  </outline>
</glyph>
<glyph name="ringcomb" format="2">
  <advance width="267" height="962"/>
  <unicode hex="030A"/>
  <outline>
    <contour>
      <point x="303" y="794" type="curve" smooth="yes"/>
      <point x="376" y="794"/>
      <point x="423" y="737"/>
      <point x="407" y="663" type="curve" smooth="yes"/>
      <point x="392" y="591"/>
      <point x="320" y="531"/>
      <point x="247" y="531" type="curve" smooth="yes"/>
      <point x="174" y="531"/>
      <point x="127" y="591"/>
      <point x="142" y="663" type="curve" smooth="yes"/>
      <point x="158" y="737"/>
      <point x="230" y="794"/>
    </contour>
    <contour>
      <point x="279" y="680" type="curve" smooth="yes"/>
      <point x="275" y="680"/>
      <point x="270" y="678"/>
      <point x="266" y="675" type="curve" smooth="yes"/>
      <point x="262" y="672"/>
      <point x="259" y="668"/>
      <point x="258" y="663" type="curve" smooth="yes"/>
      <point x="257" y="658"/>
      <point x="258" y="653"/>
      <point x="260" y="650" type="curve" smooth="yes"/>
      <point x="263" y="647"/>
      <point x="267" y="645"/>
      <point x="271" y="645" type="curve" smooth="yes"/>
      <point x="275" y="645"/>
      <point x="280" y="648"/>
      <point x="283" y="650" type="curve" smooth="yes"/>
      <point x="288" y="653"/>
      <point x="291" y="657"/>
      <point x="292" y="663" type="curve" smooth="yes"/>
      <point x="293" y="667"/>
      <point x="292" y="672"/>
      <point x="290" y="674" type="curve" smooth="yes"/>
      <point x="287" y="678"/>
      <point x="284" y="680"/>
    </contour>
  </outline>
</glyph>
<glyph name="commaaccent" format="2">
  <advance width="267"/>
  <unicode hex="0326"/>
  <outline>
    <contour>
      <point x="65" y="-133" type="line"/>
      <point x="80" y="-120"/>
      <point x="89" y="-110"/>
      <point x="95" y="-100" type="curve"/>
      <point x="62" y="-91"/>
      <point x="43" y="-62"/>
      <point x="50" y="-26" type="curve"/>
      <point x="60" y="17"/>
      <point x="102" y="52"/>
      <point x="146" y="52" type="curve" smooth="yes"/>
      <point x="187" y="52"/>
      <point x="214" y="17"/>
      <point x="204" y="-26" type="curve"/>
      <point x="183" y="-128"/>
      <point x="88" y="-155"/>
      <point x="90" y="-155" type="curve"/>
    </contour>
  </outline>
</glyph>
<glyph name="tonos" format="1">
  <advance width="267" height="962"/>
  <unicode hex="0384"/>
  <outline>
    <contour>
      <point x="338" y="665" type="curve" smooth="yes"/>
      <point x="272" y="598" type="line"/>
      <point x="183" y="598" type="line"/>
      <point x="239" y="715" type="line" smooth="yes"/>
      <point x="255" y="750"/>
      <point x="307" y="785"/>
      <point x="346" y="762" type="curve" smooth="yes"/>
      <point x="383" y="741"/>
      <point x="365" y="692"/>
    </contour>
  </outline>
</glyph>
<glyph name="dieresistonos" format="2">
  <advance width="267"/>
  <unicode hex="0385"/>
  <outline>
    <contour>
      <point x="234" y="695" type="curve" smooth="yes"/>
      <point x="226" y="657"/>
      <point x="190" y="628"/>
      <point x="151" y="628" type="curve" smooth="yes"/>
      <point x="113" y="628"/>
      <point x="90" y="657"/>
      <point x="98" y="695" type="curve" smooth="yes"/>
      <point x="106" y="734"/>
      <point x="142" y="762"/>
      <point x="180" y="762" type="curve" smooth="yes"/>
      <point x="219" y="762"/>
      <point x="242" y="734"/>
    </contour>
    <contour>
      <point x="469" y="695" type="curve" smooth="yes"/>
      <point x="461" y="658"/>
      <point x="423" y="628"/>
      <point x="386" y="628" type="curve" smooth="yes"/>
      <point x="347" y="628"/>
      <point x="325" y="658"/>
      <point x="333" y="695" type="curve" smooth="yes"/>
      <point x="341" y="734"/>
      <point x="376" y="762"/>
      <point x="415" y="762" type="curve" smooth="yes"/>
      <point x="452" y="762"/>
      <point x="477" y="734"/>
    </contour>
    <contour>
      <point x="402" y="805" type="curve" smooth="yes"/>
      <point x="336" y="738" type="line"/>
      <point x="247" y="738" type="line"/>
      <point x="303" y="855" type="line" smooth="yes"/>
      <point x="319" y="890"/>
      <point x="371" y="925"/>
      <point x="410" y="902" type="curve" smooth="yes"/>
      <point x="446" y="881"/>
      <point x="429" y="832"/>
    </contour>
  </outline>
</glyph>
<glyph name="Deltagreek" format="2">
  <advance width="545" height="962"/>
  <unicode hex="0394"/>
  <outline>
    <contour>
      <point x="526" y="0" type="line"/>
      <point x="21" y="0" type="line"/>
      <point x="285" y="700" type="line"/>
      <point x="557" y="700" type="line"/>
    </contour>
    <contour>
      <point x="256" y="139" type="line"/>
      <point x="343" y="139" type="line"/>
      <point x="385" y="542" type="line"/>
    </contour>
  </outline>
</glyph>
<glyph name="Lambda" format="1">
  <advance width="545" height="962"/>
  <unicode hex="039B"/>
  <outline>
    <contour>
      <point x="380" y="514" type="line"/>
      <point x="201" y="0" type="line"/>
      <point x="20" y="0" type="line"/>
      <point x="284" y="700" type="line"/>
      <point x="558" y="700" type="line"/>
      <point x="527" y="0" type="line"/>
      <point x="346" y="0" type="line"/>
    </contour>
  </outline>
</glyph>
<glyph name="Xi" format="2">
  <advance width="567" height="962"/>
  <unicode hex="039E"/>
  <outline>
    <contour>
      <point x="157" y="626" type="line"/>
      <point x="200" y="682"/>
      <point x="254" y="700"/>
      <point x="320" y="700" type="curve" smooth="yes"/>
      <point x="645" y="700" type="line"/>
      <point x="586" y="520" type="line"/>
      <point x="303" y="520" type="line" smooth="yes"/>
      <point x="262" y="520"/>
      <point x="238" y="520"/>
      <point x="201" y="495" type="curve"/>
    </contour>
    <contour>
      <point x="474" y="270" type="line"/>
      <point x="208" y="270" type="line"/>
      <point x="242" y="428" type="line"/>
      <point x="508" y="428" type="line"/>
    </contour>
    <contour>
      <point x="388" y="179" type="line" smooth="yes"/>
      <point x="442" y="179"/>
      <point x="483" y="180"/>
      <point x="514" y="215" type="curve"/>
      <point x="558" y="77" type="line"/>
      <point x="515" y="20"/>
      <point x="454" y="0"/>
      <point x="390" y="0" type="curve" smooth="yes"/>
      <point x="64" y="0" type="line"/>
      <point x="123" y="179" type="line"/>
    </contour>
  </outline>
</glyph>
<glyph name="Sigma" format="2">
  <advance width="525" height="962"/>
  <unicode hex="03A3"/>
  <outline>
    <contour>
      <point x="373" y="161" type="line" smooth="yes"/>
      <point x="406" y="161"/>
      <point x="421" y="163"/>
      <point x="436" y="191" type="curve"/>
      <point x="538" y="107" type="line"/>
      <point x="497" y="36"/>
      <point x="428" y="0"/>
      <point x="349" y="0" type="curve" smooth="yes"/>
      <point x="25" y="0" type="line"/>
      <point x="250" y="374" type="line"/>
      <point x="190" y="701" type="line"/>
      <point x="620" y="701" type="line"/>
      <point x="528" y="553" type="line"/>
      <point x="398" y="553" type="line"/>
      <point x="430" y="376" type="line"/>
      <point x="297" y="161" type="line"/>
    </contour>
  </outline>
</glyph>
<glyph name="Chi" format="2">
  <advance width="629"/>
  <unicode hex="03A7"/>
  <outline>
    <contour>
      <point x="426" y="521" type="line"/>
      <point x="546" y="700" type="line"/>
      <point x="740" y="700" type="line"/>
      <point x="490" y="364" type="line"/>
      <point x="605" y="0" type="line"/>
      <point x="417" y="0" type="line"/>
      <point x="357" y="199" type="line"/>
      <point x="214" y="0" type="line"/>
      <point x="26" y="0" type="line"/>
      <point x="294" y="364" type="line"/>
      <point x="187" y="700" type="line"/>
      <point x="379" y="700" type="line"/>
    </contour>
  </outline>
  <guideline angle="121.5" x="468.457" y="0"/>
  <guideline angle="58.5" x="163.249" y="0"/>
  <guideline angle="58.5" x="26.5" y="0"/>
  <guideline angle="121.5" x="602.756" y="1"/>
</glyph>
<glyph name="Psi" format="2">
  <advance width="668" height="962"/>
  <unicode hex="03A8"/>
  <outline>
    <contour>
      <point x="293" y="367" type="line" smooth="yes"/>
      <point x="288" y="343"/>
      <point x="290" y="332"/>
      <point x="301" y="332" type="curve" smooth="yes"/>
      <point x="311" y="332" type="line"/>
      <point x="389" y="700" type="line"/>
      <point x="570" y="700" type="line"/>
      <point x="492" y="332" type="line"/>
      <point x="506" y="332" type="line" smooth="yes"/>
      <point x="517" y="332"/>
      <point x="523" y="344"/>
      <point x="528" y="369" type="curve" smooth="yes"/>
      <point x="570" y="565" type="line" smooth="yes"/>
      <point x="585" y="637"/>
      <point x="595" y="678"/>
      <point x="595" y="680" type="curve"/>
      <point x="748" y="711" type="line"/>
      <point x="758" y="689"/>
      <point x="768" y="651"/>
      <point x="747" y="550" type="curve" smooth="yes"/>
      <point x="714" y="393" type="line" smooth="yes"/>
      <point x="688" y="272"/>
      <point x="612" y="183"/>
      <point x="483" y="183" type="curve" smooth="yes"/>
      <point x="460" y="183" type="line"/>
      <point x="421" y="0" type="line"/>
      <point x="240" y="0" type="line"/>
      <point x="279" y="183" type="line"/>
      <point x="261" y="183" type="line" smooth="yes"/>
      <point x="135" y="183"/>
      <point x="95" y="272"/>
      <point x="121" y="393" type="curve" smooth="yes"/>
      <point x="186" y="700" type="line"/>
      <point x="364" y="700" type="line"/>
    </contour>
  </outline>
</glyph>
<glyph name="iotatonos" format="1">
  <advance width="258" height="962"/>
  <unicode hex="03AF"/>
  <outline>
    <component base="dotlessi"/>
    <contour>
      <point x="336" y="620" type="curve" smooth="yes"/>
      <point x="284" y="553" type="line"/>
      <point x="195" y="553" type="line"/>
      <point x="226" y="670" type="line" smooth="yes"/>
      <point x="235" y="705"/>
      <point x="279" y="740"/>
      <point x="323" y="717" type="curve" smooth="yes"/>
      <point x="364" y="696"/>
      <point x="357" y="647"/>
    </contour>
  </outline>
</glyph>
<glyph name="beta" format="2">
  <advance width="454" height="962"/>
  <unicode hex="03B2"/>
  <outline>
    <contour>
      <point x="151" y="523" type="line" smooth="yes"/>
      <point x="172" y="619"/>
      <point x="244" y="704"/>
      <point x="382" y="704" type="curve" smooth="yes"/>
      <point x="491" y="704"/>
      <point x="550" y="644"/>
      <point x="527" y="534" type="curve" smooth="yes"/>
      <point x="517" y="487"/>
      <point x="487" y="425"/>
      <point x="416" y="393" type="curve"/>
      <point x="435" y="393" type="line" smooth="yes"/>
      <point x="466" y="393"/>
      <point x="503" y="359"/>
      <point x="490" y="298" type="curve" smooth="yes"/>
      <point x="454" y="125" type="line" smooth="yes"/>
      <point x="432" y="20"/>
      <point x="365" y="-11"/>
      <point x="292" y="-11" type="curve" smooth="yes"/>
      <point x="275" y="-11"/>
      <point x="236" y="-8"/>
      <point x="220" y="-4" type="curve"/>
      <point x="175" y="-217" type="line"/>
      <point x="-1" y="-192" type="line"/>
    </contour>
    <contour>
      <point x="331" y="517" type="curve" smooth="yes"/>
      <point x="314" y="437" type="line"/>
      <point x="324" y="450" type="line" smooth="yes"/>
      <point x="338" y="468"/>
      <point x="352" y="494"/>
      <point x="357" y="516" type="curve" smooth="yes"/>
      <point x="359" y="529"/>
      <point x="355" y="534"/>
      <point x="348" y="534" type="curve" smooth="yes"/>
      <point x="340" y="534"/>
      <point x="334" y="530"/>
    </contour>
    <contour>
      <point x="258" y="175" type="line"/>
      <point x="258" y="175"/>
      <point x="265" y="174"/>
      <point x="269" y="174" type="curve" smooth="yes"/>
      <point x="282" y="174"/>
      <point x="286" y="183"/>
      <point x="289" y="198" type="curve" smooth="yes"/>
      <point x="304" y="266" type="line" smooth="yes"/>
      <point x="306" y="278"/>
      <point x="303" y="280"/>
      <point x="297" y="280" type="curve" smooth="yes"/>
      <point x="292" y="280"/>
      <point x="288" y="279"/>
      <point x="284" y="278" type="curve" smooth="yes"/>
      <point x="280" y="277" type="line"/>
    </contour>
  </outline>
</glyph>
<glyph name="gamma" format="2">
  <advance width="517" height="962"/>
  <unicode hex="03B3"/>
  <outline>
    <contour>
      <point x="574" y="409" type="line"/>
      <point x="535" y="393"/>
      <point x="507" y="381"/>
      <point x="487" y="314" type="curve" smooth="yes"/>
      <point x="390" y="-11" type="line" smooth="yes"/>
      <point x="353" y="-133"/>
      <point x="251" y="-203"/>
      <point x="77" y="-203" type="curve"/>
      <point x="82" y="-29" type="line"/>
      <point x="129" y="-29"/>
      <point x="205" y="-27"/>
      <point x="211" y="-5" type="curve" smooth="yes"/>
      <point x="215" y="9" type="line"/>
      <point x="141" y="9"/>
      <point x="83" y="45"/>
      <point x="92" y="135" type="curve" smooth="yes"/>
      <point x="128" y="501" type="line"/>
      <point x="311" y="501" type="line"/>
      <point x="266" y="207" type="line" smooth="yes"/>
      <point x="264" y="192"/>
      <point x="272" y="192"/>
      <point x="272" y="192" type="curve"/>
      <point x="320" y="357" type="line" smooth="yes"/>
      <point x="353" y="472"/>
      <point x="423" y="526"/>
      <point x="543" y="531" type="curve"/>
    </contour>
  </outline>
</glyph>
<glyph name="delta" format="1">
  <advance width="445" height="962"/>
  <unicode hex="03B4"/>
  <outline>
    <contour>
      <point x="375" y="520" type="line" smooth="yes"/>
      <point x="369" y="520"/>
      <point x="363" y="517"/>
      <point x="361" y="510" type="curve" smooth="yes"/>
      <point x="360" y="503"/>
      <point x="366" y="498"/>
      <point x="370" y="494" type="curve" smooth="yes"/>
      <point x="405" y="462"/>
      <point x="436" y="439"/>
      <point x="463" y="398" type="curve" smooth="yes"/>
      <point x="481" y="370"/>
      <point x="484" y="328"/>
      <point x="474" y="281" type="curve" smooth="yes"/>
      <point x="453" y="184" type="line" smooth="yes"/>
      <point x="426" y="58"/>
      <point x="330" y="-11"/>
      <point x="218" y="-11" type="curve" smooth="yes"/>
      <point x="98" y="-11"/>
      <point x="43" y="59"/>
      <point x="69" y="184" type="curve" smooth="yes"/>
      <point x="97" y="317" type="line" smooth="yes"/>
      <point x="112" y="386"/>
      <point x="149" y="442"/>
      <point x="222" y="460" type="curve"/>
      <point x="208" y="483" type="line" smooth="yes"/>
      <point x="187" y="515"/>
      <point x="183" y="541"/>
      <point x="190" y="575" type="curve" smooth="yes"/>
      <point x="209" y="665"/>
      <point x="296" y="702"/>
      <point x="364" y="702" type="curve" smooth="yes"/>
      <point x="518" y="702" type="line"/>
      <point x="459" y="520" type="line"/>
    </contour>
    <contour>
      <point x="297" y="297" type="line" smooth="yes"/>
      <point x="299" y="305"/>
      <point x="301" y="316"/>
      <point x="296" y="326" type="curve" smooth="yes"/>
      <point x="294" y="330" type="line"/>
      <point x="279" y="322"/>
      <point x="275" y="310"/>
      <point x="272" y="296" type="curve" smooth="yes"/>
      <point x="250" y="193" type="line" smooth="yes"/>
      <point x="247" y="180"/>
      <point x="248" y="168"/>
      <point x="257" y="168" type="curve" smooth="yes"/>
      <point x="267" y="168"/>
      <point x="272" y="180"/>
      <point x="275" y="193" type="curve" smooth="yes"/>
    </contour>
  </outline>
</glyph>
<glyph name="lambda" format="1">
  <advance width="572" height="962"/>
  <unicode hex="03BB"/>
  <outline>
    <contour>
      <point x="512" y="179" type="line" smooth="yes"/>
      <point x="519" y="111"/>
      <point x="543" y="94"/>
      <point x="574" y="82" type="curve"/>
      <point x="436" y="-22" type="line"/>
      <point x="353" y="-2"/>
      <point x="332" y="30"/>
      <point x="324" y="143" type="curve" smooth="yes"/>
      <point x="319" y="224" type="line"/>
      <point x="319" y="224"/>
      <point x="310" y="224"/>
      <point x="302" y="206" type="curve" smooth="yes"/>
      <point x="211" y="-1" type="line"/>
      <point x="24" y="-1" type="line"/>
      <point x="193" y="328" type="line" smooth="yes"/>
      <point x="237" y="415"/>
      <point x="267" y="432"/>
      <point x="300" y="452" type="curve"/>
      <point x="297" y="493" type="line" smooth="yes"/>
      <point x="293" y="544"/>
      <point x="237" y="542"/>
      <point x="194" y="542" type="curve"/>
      <point x="272" y="702" type="line"/>
      <point x="392" y="702"/>
      <point x="468" y="651"/>
      <point x="478" y="545" type="curve" smooth="yes"/>
    </contour>
  </outline>
</glyph>
<glyph name="pi" format="2">
  <advance width="480"/>
  <unicode hex="03C0"/>
  <outline>
    <contour>
      <point x="457" y="141" type="line" smooth="yes"/>
      <point x="449" y="103"/>
      <point x="459" y="85"/>
      <point x="474" y="74" type="curve"/>
      <point x="337" y="-17" type="line"/>
      <point x="342" y="-16"/>
      <point x="247" y="7"/>
      <point x="274" y="130" type="curve" smooth="yes"/>
      <point x="314" y="321" type="line"/>
      <point x="286" y="321" type="line"/>
      <point x="218" y="0" type="line"/>
      <point x="39" y="0" type="line"/>
      <point x="145" y="501" type="line"/>
      <point x="533" y="501" type="line"/>
    </contour>
  </outline>
</glyph>
<glyph name="sigma1" format="2">
  <advance width="382"/>
  <unicode hex="03C2"/>
  <outline>
    <contour>
      <point x="258" y="233" type="line" smooth="yes"/>
      <point x="248" y="189"/>
      <point x="261" y="179"/>
      <point x="279" y="143" type="curve" smooth="yes"/>
      <point x="298" y="106" type="line" smooth="yes"/>
      <point x="312" y="78"/>
      <point x="328" y="37"/>
      <point x="316" y="-21" type="curve" smooth="yes"/>
      <point x="305" y="-71"/>
      <point x="264" y="-114"/>
      <point x="222" y="-148" type="curve"/>
      <point x="114" y="-83" type="line"/>
      <point x="124" y="-73"/>
      <point x="138" y="-57"/>
      <point x="142" y="-39" type="curve" smooth="yes"/>
      <point x="146" y="-17"/>
      <point x="143" y="0"/>
      <point x="134" y="17" type="curve" smooth="yes"/>
      <point x="115" y="50" type="line" smooth="yes"/>
      <point x="100" y="76"/>
      <point x="55" y="129"/>
      <point x="75" y="219" type="curve" smooth="yes"/>
      <point x="100" y="340" type="line" smooth="yes"/>
      <point x="119" y="428"/>
      <point x="189" y="507"/>
      <point x="313" y="507" type="curve" smooth="yes"/>
      <point x="354" y="507"/>
      <point x="395" y="495"/>
      <point x="424" y="471" type="curve"/>
      <point x="354" y="310" type="line"/>
      <point x="343" y="316"/>
      <point x="329" y="321"/>
      <point x="311" y="321" type="curve" smooth="yes"/>
      <point x="280" y="321"/>
      <point x="272" y="302"/>
      <point x="269" y="285" type="curve" smooth="yes"/>
    </contour>
  </outline>
</glyph>
<glyph name="upsilon" format="2">
  <advance width="460"/>
  <unicode hex="03C5"/>
  <outline>
    <contour>
      <point x="463" y="185" type="line" smooth="yes"/>
      <point x="438" y="67"/>
      <point x="359" y="-10"/>
      <point x="233" y="-10" type="curve" smooth="yes"/>
      <point x="94" y="-10"/>
      <point x="55" y="83"/>
      <point x="76" y="185" type="curve" smooth="yes"/>
      <point x="143" y="501" type="line"/>
      <point x="323" y="501" type="line"/>
      <point x="257" y="190" type="line" smooth="yes"/>
      <point x="255" y="177"/>
      <point x="256" y="166"/>
      <point x="266" y="166" type="curve" smooth="yes"/>
      <point x="275" y="166"/>
      <point x="281" y="176"/>
      <point x="284" y="190" type="curve" smooth="yes"/>
      <point x="350" y="501" type="line"/>
      <point x="530" y="501" type="line"/>
    </contour>
  </outline>
</glyph>
<glyph name="chi" format="2">
  <advance width="654"/>
  <unicode hex="03C7"/>
  <outline>
    <contour>
      <point x="509" y="20" type="line" smooth="yes"/>
      <point x="525" y="-30"/>
      <point x="545" y="-68"/>
      <point x="591" y="-68" type="curve"/>
      <point x="489" y="-213" type="line"/>
      <point x="405" y="-213"/>
      <point x="368" y="-178"/>
      <point x="348" y="-113" type="curve" smooth="yes"/>
      <point x="318" y="-14" type="line"/>
      <point x="164" y="-211" type="line"/>
      <point x="15" y="-137" type="line"/>
      <point x="258" y="169" type="line"/>
      <point x="156" y="501" type="line"/>
      <point x="357" y="501" type="line"/>
      <point x="404" y="353" type="line"/>
      <point x="521" y="501" type="line"/>
      <point x="727" y="501" type="line"/>
      <point x="463" y="169" type="line"/>
    </contour>
  </outline>
</glyph>
<glyph name="psi" format="2">
  <advance width="647"/>
  <unicode hex="03C8"/>
  <outline>
    <contour>
      <point x="711" y="507" type="line"/>
      <point x="722" y="475"/>
      <point x="715" y="440"/>
      <point x="703" y="388" type="curve" smooth="yes"/>
      <point x="661" y="190" type="line" smooth="yes"/>
      <point x="635" y="68"/>
      <point x="563" y="-7"/>
      <point x="419" y="-7" type="curve" smooth="yes"/>
      <point x="414" y="-7" type="line"/>
      <point x="369" y="-217" type="line"/>
      <point x="194" y="-191" type="line"/>
      <point x="234" y="-7" type="line"/>
      <point x="228" y="-7" type="line" smooth="yes"/>
      <point x="87" y="-7"/>
      <point x="42" y="68"/>
      <point x="68" y="190" type="curve" smooth="yes"/>
      <point x="134" y="501" type="line"/>
      <point x="314" y="501" type="line"/>
      <point x="249" y="192" type="line" smooth="yes"/>
      <point x="246" y="177"/>
      <point x="253" y="169"/>
      <point x="265" y="169" type="curve" smooth="yes"/>
      <point x="271" y="169" type="line"/>
      <point x="341" y="501" type="line"/>
      <point x="521" y="501" type="line"/>
      <point x="451" y="169" type="line"/>
      <point x="456" y="169" type="line" smooth="yes"/>
      <point x="466" y="169"/>
      <point x="479" y="175"/>
      <point x="483" y="192" type="curve" smooth="yes"/>
      <point x="524" y="388" type="line" smooth="yes"/>
      <point x="534" y="435"/>
      <point x="537" y="455"/>
      <point x="537" y="479" type="curve"/>
    </contour>
  </outline>
</glyph>
<glyph name="omega" format="1">
  <advance width="654" height="962"/>
  <unicode hex="03C9"/>
  <outline>
    <contour>
      <point x="612" y="500" type="line"/>
      <point x="685" y="472"/>
      <point x="712" y="411"/>
      <point x="692" y="316" type="curve" smooth="yes"/>
      <point x="665" y="187" type="line" smooth="yes"/>
      <point x="636" y="54"/>
      <point x="560" y="-13"/>
      <point x="451" y="-13" type="curve" smooth="yes"/>
      <point x="401" y="-13"/>
      <point x="359" y="6"/>
      <point x="340" y="40" type="curve"/>
      <point x="301" y="6"/>
      <point x="254" y="-13"/>
      <point x="203" y="-13" type="curve" smooth="yes"/>
      <point x="97" y="-13"/>
      <point x="43" y="54"/>
      <point x="72" y="187" type="curve" smooth="yes"/>
      <point x="99" y="316" type="line" smooth="yes"/>
      <point x="119" y="411"/>
      <point x="177" y="473"/>
      <point x="260" y="500" type="curve"/>
      <point x="320" y="384" type="line"/>
      <point x="294" y="374"/>
      <point x="287" y="357"/>
      <point x="278" y="315" type="curve" smooth="yes"/>
      <point x="250" y="184" type="line" smooth="yes"/>
      <point x="248" y="172"/>
      <point x="252" y="168"/>
      <point x="260" y="168" type="curve" smooth="yes"/>
      <point x="268" y="168"/>
      <point x="274" y="171"/>
      <point x="277" y="184" type="curve" smooth="yes"/>
      <point x="301" y="297" type="line"/>
      <point x="481" y="297" type="line"/>
      <point x="457" y="184" type="line" smooth="yes"/>
      <point x="454" y="171"/>
      <point x="460" y="168"/>
      <point x="468" y="168" type="curve" smooth="yes"/>
      <point x="475" y="168"/>
      <point x="482" y="172"/>
      <point x="484" y="184" type="curve" smooth="yes"/>
      <point x="512" y="315" type="line" smooth="yes"/>
      <point x="521" y="357"/>
      <point x="519" y="374"/>
      <point x="499" y="384" type="curve"/>
    </contour>
  </outline>
</glyph>
<glyph name="uni040B" format="1">
  <advance width="582" height="962"/>
  <unicode hex="040B"/>
  <outline>
    <component base="T" xOffset="13"/>
    <contour>
      <point x="516" y="512" type="curve" smooth="yes"/>
      <point x="595" y="512"/>
      <point x="656" y="475"/>
      <point x="629" y="346" type="curve" smooth="yes"/>
      <point x="555" y="0" type="line"/>
      <point x="374" y="0" type="line"/>
      <point x="438" y="301" type="line" smooth="yes"/>
      <point x="443" y="325"/>
      <point x="432" y="344"/>
      <point x="409" y="344" type="curve" smooth="yes"/>
      <point x="402" y="344"/>
      <point x="389" y="344"/>
      <point x="380" y="344" type="curve"/>
      <point x="409" y="478" type="line"/>
      <point x="436" y="501"/>
      <point x="463" y="512"/>
    </contour>
  </outline>
</glyph>
<glyph name="uni040F" format="1">
  <advance width="518" height="962"/>
  <unicode hex="040F"/>
  <outline>
    <contour>
      <point x="623" y="700" type="line"/>
      <point x="474" y="0" type="line"/>
      <point x="348" y="0" type="line"/>
      <point x="308" y="-145" type="line"/>
      <point x="148" y="-145" type="line"/>
      <point x="171" y="0" type="line"/>
      <point x="43" y="0" type="line"/>
      <point x="192" y="700" type="line"/>
      <point x="373" y="700" type="line"/>
      <point x="258" y="161" type="line"/>
      <point x="328" y="161" type="line"/>
      <point x="443" y="700" type="line"/>
    </contour>
  </outline>
</glyph>
<glyph name="uni041B" format="2">
  <advance width="643" height="962"/>
  <unicode hex="041B"/>
  <outline>
    <contour>
      <point x="550" y="700" type="curve" smooth="yes"/>
      <point x="759" y="700" type="line"/>
      <point x="610" y="-1" type="line"/>
      <point x="435" y="-1" type="line"/>
      <point x="545" y="540" type="line"/>
      <point x="526" y="540" type="line" smooth="yes"/>
      <point x="510" y="540"/>
      <point x="500" y="533"/>
      <point x="475" y="485" type="curve" smooth="yes"/>
      <point x="319" y="182" type="line" smooth="yes"/>
      <point x="264" y="76"/>
      <point x="229" y="23"/>
      <point x="141" y="-23" type="curve"/>
      <point x="38" y="83" type="line"/>
      <point x="81" y="104"/>
      <point x="105" y="129"/>
      <point x="140" y="198" type="curve" smooth="yes"/>
      <point x="327" y="566" type="line" smooth="yes"/>
      <point x="360" y="631"/>
      <point x="430" y="700"/>
    </contour>
  </outline>
</glyph>
<glyph name="uni0423" format="1">
  <advance width="522" height="962"/>
  <unicode hex="0423"/>
  <outline>
    <contour>
      <point x="481" y="700" type="line"/>
      <point x="663" y="700" type="line"/>
      <point x="390" y="161" type="line" smooth="yes"/>
      <point x="331" y="44"/>
      <point x="218" y="-12"/>
      <point x="80" y="-22" type="curve"/>
      <point x="51" y="91" type="line"/>
      <point x="144" y="116"/>
      <point x="189" y="123"/>
      <point x="228" y="198" type="curve" smooth="yes"/>
      <point x="235" y="211" type="line"/>
      <point x="159" y="700" type="line"/>
      <point x="347" y="700" type="line"/>
      <point x="369" y="475" type="line"/>
    </contour>
  </outline>
</glyph>
<glyph name="uni0426" format="1">
  <advance width="603" height="962"/>
  <unicode hex="0426"/>
  <outline>
    <contour>
      <point x="505" y="160" type="line"/>
      <point x="613" y="160" type="line"/>
      <point x="552" y="-125" type="line"/>
      <point x="394" y="-125" type="line"/>
      <point x="400" y="0" type="line"/>
      <point x="40" y="0" type="line"/>
      <point x="189" y="700" type="line"/>
      <point x="369" y="700" type="line"/>
      <point x="254" y="160" type="line"/>
      <point x="324" y="160" type="line"/>
      <point x="439" y="700" type="line"/>
      <point x="620" y="700" type="line"/>
    </contour>
  </outline>
</glyph>
<glyph name="uni042D" format="2">
  <advance width="427"/>
  <unicode hex="042D"/>
  <outline>
    <contour>
      <point x="205.5" y="540" type="curve"/>
      <point x="205.5" y="677" type="line"/>
      <point x="257" y="701"/>
      <point x="307" y="712"/>
      <point x="352.1" y="712" type="curve" smooth="yes"/>
      <point x="481.4" y="712"/>
      <point x="530.4" y="626.15"/>
      <point x="506" y="511" type="curve" smooth="yes"/>
      <point x="436" y="184.45" type="line" smooth="yes"/>
      <point x="410.2" y="63.95"/>
      <point x="325.25" y="-12"/>
      <point x="197.7" y="-12" type="curve" smooth="yes"/>
      <point x="145" y="-12"/>
      <point x="94" y="1.1"/>
      <point x="41" y="23.2" type="curve"/>
      <point x="85" y="167.7" type="line"/>
      <point x="96" y="160.8"/>
      <point x="139" y="148"/>
      <point x="179.1" y="148" type="curve" smooth="yes"/>
      <point x="225.9" y="148"/>
      <point x="252.2" y="165.6"/>
      <point x="262" y="211.05" type="curve" smooth="yes"/>
      <point x="276.279" y="278" type="line"/>
      <point x="205" y="278" type="line"/>
      <point x="205" y="438" type="line"/>
      <point x="310.403" y="438" type="line"/>
      <point x="320" y="483" type="line" smooth="yes"/>
      <point x="331.05" y="534.95"/>
      <point x="301.2" y="548"/>
      <point x="252.15" y="548" type="curve" smooth="yes"/>
      <point x="239" y="548"/>
      <point x="226" y="547"/>
    </contour>
  </outline>
</glyph>
<glyph name="uni042E" format="1">
  <advance width="744" height="962"/>
  <unicode hex="042E"/>
  <outline>
    <component base="O" xOffset="251"/>
    <component base="I" xOffset="-73"/>
    <contour>
      <point x="429" y="433" type="line"/>
      <point x="395" y="273" type="line"/>
      <point x="177" y="273" type="line"/>
      <point x="211" y="433" type="line"/>
    </contour>
  </outline>
</glyph>
<glyph name="uni0436" format="1">
  <advance width="628" height="962"/>
  <unicode hex="0436"/>
  <outline>
    <contour>
      <point x="723" y="500" type="line"/>
      <point x="623" y="249" type="line"/>
      <point x="612" y="0" type="line"/>
      <point x="437" y="0" type="line"/>
      <point x="457" y="169" type="line"/>
      <point x="443" y="169" type="line"/>
      <point x="407" y="0" type="line"/>
      <point x="227" y="0" type="line"/>
      <point x="263" y="169" type="line"/>
      <point x="250" y="169" type="line"/>
      <point x="199" y="0" type="line"/>
      <point x="16" y="0" type="line"/>
      <point x="118" y="248" type="line"/>
      <point x="126" y="500" type="line"/>
      <point x="307" y="500" type="line"/>
      <point x="283" y="326" type="line"/>
      <point x="296" y="326" type="line"/>
      <point x="333" y="500" type="line"/>
      <point x="513" y="500" type="line"/>
      <point x="476" y="326" type="line"/>
      <point x="490" y="326" type="line"/>
      <point x="543" y="500" type="line"/>
    </contour>
  </outline>
</glyph>
<glyph name="uni0438" format="2">
  <advance width="479"/>
  <unicode hex="0438"/>
  <outline>
    <contour>
      <point x="325" y="500" type="line"/>
      <point x="291" y="341" type="line"/>
      <point x="370" y="500" type="line"/>
      <point x="550" y="500" type="line"/>
      <point x="444" y="-1" type="line"/>
      <point x="264" y="-1" type="line"/>
      <point x="297" y="156" type="line"/>
      <point x="219" y="-1" type="line"/>
      <point x="39" y="-1" type="line"/>
      <point x="145" y="500" type="line"/>
    </contour>
  </outline>
</glyph>
<glyph name="uni043D" format="1">
  <advance width="462" height="962"/>
  <unicode hex="043D"/>
  <outline>
    <contour>
      <point x="316" y="326" type="line"/>
      <point x="353" y="500" type="line"/>
      <point x="532" y="500" type="line"/>
      <point x="426" y="0" type="line"/>
      <point x="247" y="0" type="line"/>
      <point x="294" y="221" type="line"/>
      <point x="266" y="221" type="line"/>
      <point x="219" y="0" type="line"/>
      <point x="37" y="0" type="line"/>
      <point x="143" y="500" type="line"/>
      <point x="325" y="500" type="line"/>
      <point x="288" y="326" type="line"/>
    </contour>
  </outline>
</glyph>
<glyph name="uni0448" format="1">
  <advance width="679" height="962"/>
  <unicode hex="0448"/>
  <outline>
    <contour>
      <point x="563" y="500" type="line"/>
      <point x="742" y="500" type="line"/>
      <point x="636" y="0" type="line"/>
      <point x="44" y="0" type="line"/>
      <point x="150" y="500" type="line"/>
      <point x="330" y="500" type="line"/>
      <point x="256" y="149" type="line"/>
      <point x="282" y="149" type="line"/>
      <point x="356" y="500" type="line"/>
      <point x="536" y="500" type="line"/>
      <point x="462" y="149" type="line"/>
      <point x="489" y="149" type="line"/>
    </contour>
  </outline>
</glyph>
<glyph name="uni044C" format="2">
  <advance width="456"/>
  <unicode hex="044C"/>
  <outline>
    <contour>
      <point x="321" y="360" type="line" smooth="yes"/>
      <point x="413" y="360"/>
      <point x="499" y="313"/>
      <point x="470" y="181" type="curve" smooth="yes"/>
      <point x="443" y="52"/>
      <point x="362" y="-9"/>
      <point x="224" y="-9" type="curve" smooth="yes"/>
      <point x="162" y="-9"/>
      <point x="40" y="2"/>
      <point x="40" y="2" type="curve"/>
      <point x="146" y="500" type="line"/>
      <point x="326" y="500" type="line"/>
      <point x="297" y="360" type="line"/>
    </contour>
    <contour>
      <point x="270" y="150" type="curve" smooth="yes"/>
      <point x="278" y="150"/>
      <point x="285" y="156"/>
      <point x="289" y="176" type="curve" smooth="yes"/>
      <point x="293" y="194"/>
      <point x="290" y="201"/>
      <point x="283" y="201" type="curve" smooth="yes"/>
      <point x="263" y="201" type="line"/>
      <point x="252" y="151" type="line"/>
      <point x="257" y="151"/>
      <point x="267" y="150"/>
    </contour>
  </outline>
</glyph>
<glyph name="uni044D" format="2">
  <advance width="378"/>
  <unicode hex="044D"/>
  <outline>
    <contour>
      <point x="137" y="357" type="curve"/>
      <point x="126" y="479" type="line"/>
      <point x="171" y="498"/>
      <point x="220" y="511"/>
      <point x="264" y="512" type="curve" smooth="yes"/>
      <point x="388" y="515"/>
      <point x="438" y="433"/>
      <point x="414" y="320" type="curve" smooth="yes"/>
      <point x="383" y="174" type="line" smooth="yes"/>
      <point x="356" y="45"/>
      <point x="267" y="-8"/>
      <point x="151" y="-12" type="curve" smooth="yes"/>
      <point x="106" y="-13"/>
      <point x="63" y="-6"/>
      <point x="24" y="5" type="curve"/>
      <point x="82" y="140" type="line"/>
      <point x="81" y="140"/>
      <point x="124" y="132"/>
      <point x="144" y="132" type="curve" smooth="yes"/>
      <point x="173" y="132"/>
      <point x="186" y="141"/>
      <point x="192" y="171" type="curve" smooth="yes"/>
      <point x="192.866" y="175" type="line"/>
      <point x="133" y="175" type="line"/>
      <point x="120" y="322" type="line"/>
      <point x="224.701" y="322" type="line"/>
      <point x="226" y="328" type="line" smooth="yes"/>
      <point x="232" y="356"/>
      <point x="220" y="365"/>
      <point x="193" y="365" type="curve" smooth="yes"/>
      <point x="179" y="365"/>
      <point x="149" y="361"/>
    </contour>
  </outline>
</glyph>
<glyph name="uni0459" format="2">
  <advance width="793"/>
  <unicode hex="0459"/>
  <outline>
    <contour>
      <point x="669" y="360" type="line" smooth="yes"/>
      <point x="748" y="360"/>
      <point x="836" y="305"/>
      <point x="809" y="179" type="curve" smooth="yes"/>
      <point x="789" y="86"/>
      <point x="724" y="-11"/>
      <point x="588" y="-11" type="curve" smooth="yes"/>
      <point x="526" y="-11"/>
      <point x="378" y="0"/>
      <point x="378" y="0" type="curve"/>
      <point x="450" y="340" type="line"/>
      <point x="435" y="340" type="line" smooth="yes"/>
      <point x="415" y="340"/>
      <point x="404" y="327"/>
      <point x="393" y="307" type="curve" smooth="yes"/>
      <point x="321" y="162" type="line" smooth="yes"/>
      <point x="267" y="51"/>
      <point x="171" y="-8"/>
      <point x="46" y="-25" type="curve"/>
      <point x="21" y="105" type="line"/>
      <point x="89" y="127"/>
      <point x="127" y="144"/>
      <point x="159" y="213" type="curve" smooth="yes"/>
      <point x="223" y="349" type="line" smooth="yes"/>
      <point x="254" y="414"/>
      <point x="302" y="500"/>
      <point x="422" y="500" type="curve" smooth="yes"/>
      <point x="664" y="500" type="line"/>
      <point x="635" y="360" type="line"/>
    </contour>
    <contour>
      <point x="606" y="151" type="curve" smooth="yes"/>
      <point x="615" y="151"/>
      <point x="623" y="157"/>
      <point x="627" y="176" type="curve" smooth="yes"/>
      <point x="631" y="193"/>
      <point x="628" y="200"/>
      <point x="620" y="200" type="curve" smooth="yes"/>
      <point x="601" y="200" type="line"/>
      <point x="590" y="152" type="line"/>
      <point x="596" y="151"/>
      <point x="603" y="151"/>
    </contour>
  </outline>
</glyph>
<glyph name="uni045F" format="1">
  <advance width="444" height="962"/>
  <unicode hex="045F"/>
  <outline>
    <contour>
      <point x="528" y="500" type="line"/>
      <point x="422" y="0" type="line"/>
      <point x="318" y="0" type="line"/>
      <point x="280" y="-125" type="line"/>
      <point x="125" y="-125" type="line"/>
      <point x="141" y="0" type="line"/>
      <point x="35" y="0" type="line"/>
      <point x="141" y="500" type="line"/>
      <point x="321" y="500" type="line"/>
      <point x="249" y="160" type="line"/>
      <point x="277" y="160" type="line"/>
      <point x="349" y="500" type="line"/>
    </contour>
  </outline>
</glyph>
<glyph name="uni0462" format="1">
  <advance width="478" height="962"/>
  <unicode hex="0462"/>
  <outline>
    <component base="uni042C" xOffset="23"/>
    <contour>
      <point x="137" y="641" type="line"/>
      <point x="496" y="641" type="line"/>
      <point x="472" y="526" type="line"/>
      <point x="113" y="526" type="line"/>
    </contour>
  </outline>
</glyph>
<glyph name="uni046B" format="1">
  <advance width="643" height="962"/>
  <unicode hex="046B"/>
  <outline>
    <contour>
      <point x="565" y="302" type="line" smooth="yes"/>
      <point x="643" y="302"/>
      <point x="668" y="234"/>
      <point x="655" y="172" type="curve" smooth="yes"/>
      <point x="618" y="0" type="line"/>
      <point x="440" y="0" type="line"/>
      <point x="463" y="109" type="line" smooth="yes"/>
      <point x="468" y="133"/>
      <point x="464" y="142"/>
      <point x="448" y="142" type="curve" smooth="yes"/>
      <point x="442" y="142" type="line"/>
      <point x="412" y="0" type="line"/>
      <point x="234" y="0" type="line"/>
      <point x="264" y="142" type="line"/>
      <point x="259" y="142" type="line" smooth="yes"/>
      <point x="241" y="142"/>
      <point x="235" y="133"/>
      <point x="230" y="110" type="curve" smooth="yes"/>
      <point x="207" y="0" type="line"/>
      <point x="27" y="0" type="line"/>
      <point x="64" y="172" type="line" smooth="yes"/>
      <point x="76" y="232"/>
      <point x="132" y="302"/>
      <point x="205" y="302" type="curve" smooth="yes"/>
      <point x="216" y="302" type="line"/>
      <point x="162" y="500" type="line"/>
      <point x="693" y="500" type="line"/>
      <point x="554" y="302" type="line"/>
    </contour>
    <contour>
      <point x="385" y="302" type="line"/>
      <point x="420" y="370" type="line"/>
      <point x="380" y="370" type="line"/>
    </contour>
  </outline>
</glyph>
<glyph name="uni0474" format="1">
  <advance width="548" height="962"/>
  <unicode hex="0474"/>
  <outline>
    <contour>
      <point x="625" y="723" type="curve"/>
      <point x="679" y="614" type="line"/>
      <point x="635" y="598"/>
      <point x="601" y="570"/>
      <point x="573" y="504" type="curve" smooth="yes"/>
      <point x="356" y="0" type="line"/>
      <point x="185" y="0" type="line"/>
      <point x="171" y="700" type="line"/>
      <point x="343" y="700" type="line"/>
      <point x="340" y="341" type="line"/>
      <point x="425" y="543" type="line" smooth="yes"/>
      <point x="474" y="658"/>
      <point x="544" y="712"/>
    </contour>
  </outline>
</glyph>
<glyph name="uni0493" format="2">
  <advance width="331"/>
  <unicode hex="0493"/>
  <outline>
    <component base="uni0433" xOffset="18"/>
    <contour>
      <point x="64" y="303" type="line"/>
      <point x="373" y="303" type="line"/>
      <point x="354" y="212" type="line"/>
      <point x="45" y="212" type="line"/>
    </contour>
  </outline>
</glyph>
<glyph name="uni0496" format="2">
  <advance width="754"/>
  <unicode hex="0496"/>
  <outline>
    <component base="uni0416"/>
    <contour>
      <point x="577" y="149" type="line"/>
      <point x="760" y="149" type="line"/>
      <point x="701" y="-125" type="line"/>
      <point x="550" y="-125" type="line"/>
      <point x="556" y="0" type="line"/>
      <point x="545" y="0" type="line"/>
    </contour>
  </outline>
</glyph>
<glyph name="uni049A" format="2">
  <advance width="516"/>
  <unicode hex="049A"/>
  <outline>
    <component base="K"/>
    <contour>
      <point x="349" y="149" type="line"/>
      <point x="532" y="149" type="line"/>
      <point x="473" y="-125" type="line"/>
      <point x="322" y="-125" type="line"/>
      <point x="328" y="0" type="line"/>
      <point x="317" y="0" type="line"/>
    </contour>
  </outline>
</glyph>
<glyph name="uni049B" format="2">
  <advance width="532"/>
  <unicode hex="049B"/>
  <outline>
    <contour>
      <point x="508" y="0" type="line"/>
      <point x="309" y="0" type="line"/>
      <point x="277" y="140" type="line"/>
      <point x="242" y="99" type="line"/>
      <point x="221" y="0" type="line"/>
      <point x="40" y="0" type="line"/>
      <point x="149" y="512" type="line"/>
      <point x="327" y="500" type="line"/>
      <point x="298" y="364" type="line"/>
      <point x="411" y="501" type="line"/>
      <point x="602" y="500" type="line"/>
      <point x="415" y="288" type="line"/>
    </contour>
    <contour>
      <point x="363" y="148" type="line"/>
      <point x="547" y="148" type="line"/>
      <point x="489" y="-125" type="line"/>
      <point x="337" y="-125" type="line"/>
      <point x="343" y="0" type="line"/>
      <point x="332" y="0" type="line"/>
    </contour>
  </outline>
</glyph>
<glyph name="uni049C" format="2">
  <advance width="687"/>
  <unicode hex="049C"/>
  <outline>
    <contour>
      <point x="662" y="0" type="line"/>
      <point x="468" y="0" type="line"/>
      <point x="423" y="307" type="line"/>
      <point x="393" y="307" type="line"/>
      <point x="381" y="251" type="line"/>
      <point x="300" y="251" type="line"/>
      <point x="312" y="307" type="line"/>
      <point x="286" y="307" type="line"/>
      <point x="221" y="0" type="line"/>
      <point x="41" y="0" type="line"/>
      <point x="190" y="700" type="line"/>
      <point x="370" y="700" type="line"/>
      <point x="319" y="460" type="line"/>
      <point x="345" y="460" type="line"/>
      <point x="357" y="518" type="line"/>
      <point x="438" y="518" type="line"/>
      <point x="426" y="460" type="line"/>
      <point x="452" y="460" type="line"/>
      <point x="582" y="702" type="line"/>
      <point x="768" y="702" type="line"/>
      <point x="589" y="391" type="line"/>
    </contour>
  </outline>
</glyph>
<glyph name="uni049D" format="2">
  <advance width="606"/>
  <unicode hex="049D"/>
  <outline>
    <contour>
      <point x="620" y="148" type="curve"/>
      <point x="589" y="0" type="line"/>
      <point x="495" y="0"/>
      <point x="447" y="15"/>
      <point x="419" y="100" type="curve" smooth="yes"/>
      <point x="382" y="216" type="line"/>
      <point x="362" y="214" type="line"/>
      <point x="350" y="157" type="line"/>
      <point x="279" y="157" type="line"/>
      <point x="291" y="214" type="line"/>
      <point x="262" y="214" type="line"/>
      <point x="217" y="0" type="line"/>
      <point x="38" y="0" type="line"/>
      <point x="147" y="512" type="line"/>
      <point x="323" y="500" type="line"/>
      <point x="295" y="367" type="line"/>
      <point x="324" y="367" type="line"/>
      <point x="336" y="423" type="line"/>
      <point x="407" y="423" type="line"/>
      <point x="395" y="367" type="line"/>
      <point x="430" y="367" type="line"/>
      <point x="533" y="500" type="line"/>
      <point x="701" y="500" type="line"/>
      <point x="538" y="288" type="line"/>
      <point x="575" y="186" type="line" smooth="yes"/>
      <point x="582" y="162"/>
      <point x="598" y="148"/>
    </contour>
  </outline>
</glyph>
<glyph name="uni04A0" format="2">
  <advance width="598"/>
  <unicode hex="04A0"/>
  <outline>
    <component base="K" xOffset="85"/>
    <contour>
      <point x="150" y="700" type="line"/>
      <point x="337" y="700" type="line"/>
      <point x="314" y="593" type="line"/>
      <point x="258" y="593" type="line"/>
      <point x="127" y="595" type="line"/>
    </contour>
  </outline>
</glyph>
<glyph name="uni04A2" format="1">
  <advance width="605" height="962"/>
  <unicode hex="04A2"/>
  <outline>
    <component base="H"/>
    <contour>
      <point x="426" y="149" type="line"/>
      <point x="613" y="149" type="line"/>
      <point x="554" y="-125" type="line"/>
      <point x="402" y="-125" type="line"/>
      <point x="408" y="0" type="line"/>
      <point x="394" y="0" type="line"/>
    </contour>
  </outline>
</glyph>
<glyph name="uni04A3" format="2">
  <advance width="534"/>
  <unicode hex="04A3"/>
  <outline>
    <component base="uni043D"/>
    <contour>
      <point x="359" y="149" type="line"/>
      <point x="552" y="149" type="line"/>
      <point x="493" y="-125" type="line"/>
      <point x="342" y="-125" type="line"/>
      <point x="348" y="0" type="line"/>
      <point x="327" y="0" type="line"/>
    </contour>
  </outline>
</glyph>
<glyph name="uni04A4" format="2">
  <advance width="613"/>
  <unicode hex="04A4"/>
  <outline>
    <component base="H"/>
    <contour>
      <point x="563" y="700" type="line"/>
      <point x="750" y="700" type="line"/>
      <point x="718" y="552" type="line"/>
      <point x="587" y="550" type="line"/>
      <point x="531" y="550" type="line"/>
    </contour>
  </outline>
</glyph>
<glyph name="uni04AF" format="2">
  <advance width="467" height="962"/>
  <unicode hex="04AF"/>
  <outline>
    <contour>
      <point x="551" y="500" type="line"/>
      <point x="323" y="0" type="line"/>
      <point x="277" y="-218" type="line"/>
      <point x="103" y="-194" type="line"/>
      <point x="144" y="0" type="line"/>
      <point x="127" y="500" type="line"/>
      <point x="307" y="500" type="line"/>
      <point x="286" y="242" type="line"/>
      <point x="371" y="500" type="line"/>
    </contour>
  </outline>
</glyph>
<glyph name="uni04B7" format="2">
  <advance width="526" height="962"/>
  <unicode hex="04B7"/>
  <outline>
    <component base="uni0447"/>
    <contour>
      <point x="361" y="149" type="line"/>
      <point x="545" y="149" type="line"/>
      <point x="486" y="-125" type="line"/>
      <point x="334" y="-125" type="line"/>
      <point x="340" y="0" type="line"/>
      <point x="329" y="0" type="line"/>
    </contour>
  </outline>
</glyph>
<glyph name="uni04B9" format="1">
  <advance width="578" height="962"/>
  <unicode hex="04B9"/>
  <outline>
    <contour>
      <point x="339" y="0" type="line"/>
      <point x="366" y="128" type="line"/>
      <point x="314" y="112"/>
      <point x="272" y="106"/>
      <point x="211" y="106" type="curve" smooth="yes"/>
      <point x="146" y="106"/>
      <point x="62" y="143"/>
      <point x="90" y="272" type="curve" smooth="yes"/>
      <point x="138" y="500" type="line"/>
      <point x="319" y="500" type="line"/>
      <point x="274" y="287" type="line" smooth="yes"/>
      <point x="270" y="266"/>
      <point x="279" y="256"/>
      <point x="327" y="256" type="curve" smooth="yes"/>
      <point x="366" y="256"/>
      <point x="396" y="268"/>
      <point x="401" y="291" type="curve" smooth="yes"/>
      <point x="414" y="353" type="line" smooth="yes"/>
      <point x="429" y="422"/>
      <point x="486" y="513"/>
      <point x="623" y="513" type="curve"/>
      <point x="651" y="385" type="line"/>
      <point x="610" y="377"/>
      <point x="594" y="348"/>
      <point x="587" y="314" type="curve" smooth="yes"/>
      <point x="520" y="0" type="line"/>
    </contour>
    <contour>
      <point x="311" y="329" type="line"/>
      <point x="382" y="329" type="line"/>
      <point x="319" y="33" type="line"/>
      <point x="248" y="33" type="line"/>
    </contour>
  </outline>
</glyph>
<glyph name="uni04BA" format="1">
  <advance width="520" height="962"/>
  <unicode hex="04BA"/>
  <outline>
    <contour>
      <point x="371" y="700" type="line"/>
      <point x="315" y="436" type="line"/>
      <point x="352" y="454"/>
      <point x="386" y="458"/>
      <point x="422" y="458" type="curve" smooth="yes"/>
      <point x="529" y="458"/>
      <point x="567" y="377"/>
      <point x="539" y="245" type="curve" smooth="yes"/>
      <point x="487" y="-1" type="line"/>
      <point x="307" y="-1" type="line"/>
      <point x="357" y="236" type="line" smooth="yes"/>
      <point x="366" y="276"/>
      <point x="356" y="298"/>
      <point x="325" y="298" type="curve" smooth="yes"/>
      <point x="304" y="298"/>
      <point x="280" y="274"/>
      <point x="274" y="245" type="curve" smooth="yes"/>
      <point x="222" y="-1" type="line"/>
      <point x="42" y="-1" type="line"/>
      <point x="191" y="700" type="line"/>
    </contour>
  </outline>
</glyph>
<glyph name="uni04F6" format="2">
  <advance width="379" height="962"/>
  <unicode hex="04F6"/>
  <outline>
    <component base="Gamma"/>
    <contour>
      <point x="130" y="149" type="line"/>
      <point x="333" y="149" type="line"/>
      <point x="274" y="-125" type="line"/>
      <point x="143" y="-125" type="line"/>
      <point x="149" y="0" type="line"/>
      <point x="98" y="0" type="line"/>
    </contour>
  </outline>
</glyph>
<glyph name="uni1E9E" format="2">
  <advance width="636"/>
  <unicode hex="1E9E"/>
  <outline>
    <contour>
      <point x="190" y="700" type="line"/>
      <point x="706" y="700" type="line"/>
      <point x="672" y="540" type="line"/>
      <point x="568" y="414" type="line"/>
      <point x="572" y="412" type="line" smooth="yes"/>
      <point x="653.604" y="371.198"/>
      <point x="679" y="311"/>
      <point x="658" y="212" type="curve" smooth="yes"/>
      <point x="633" y="93"/>
      <point x="515" y="-12"/>
      <point x="396" y="-12" type="curve" smooth="yes"/>
      <point x="343.781" y="-12"/>
      <point x="298.054" y="-3.88617"/>
      <point x="258.022" y="23.083" type="curve"/>
      <point x="349.569" y="165.755" type="line"/>
      <point x="365.215" y="156.72"/>
      <point x="384.641" y="153"/>
      <point x="402" y="153" type="curve" smooth="yes"/>
      <point x="442" y="153"/>
      <point x="471.652" y="180.853"/>
      <point x="479" y="215" type="curve" smooth="yes"/>
      <point x="488.654" y="259.864"/>
      <point x="445" y="275"/>
      <point x="403" y="275" type="curve" smooth="yes"/>
      <point x="301" y="275" type="line"/>
      <point x="502" y="540" type="line"/>
      <point x="336" y="540" type="line"/>
      <point x="221" y="0" type="line"/>
      <point x="41" y="0" type="line"/>
    </contour>
  </outline>
</glyph>
<glyph name="quotedblbase" format="2">
  <advance width="370" height="962"/>
  <unicode hex="201E"/>
  <outline>
    <contour>
      <point x="40" y="-61" type="line"/>
      <point x="53" y="-45"/>
      <point x="66" y="-27"/>
      <point x="72" y="-17" type="curve"/>
      <point x="39" y="-8"/>
      <point x="20" y="21"/>
      <point x="28" y="57" type="curve" smooth="yes"/>
      <point x="37" y="100"/>
      <point x="80" y="135"/>
      <point x="124" y="135" type="curve" smooth="yes"/>
      <point x="165" y="135"/>
      <point x="191" y="100"/>
      <point x="182" y="57" type="curve" smooth="yes"/>
      <point x="160" y="-45"/>
      <point x="63" y="-83"/>
      <point x="65" y="-83" type="curve"/>
    </contour>
    <contour>
      <point x="220" y="-61" type="line"/>
      <point x="233" y="-45"/>
      <point x="246" y="-27"/>
      <point x="252" y="-17" type="curve"/>
      <point x="219" y="-8"/>
      <point x="200" y="21"/>
      <point x="208" y="57" type="curve" smooth="yes"/>
      <point x="217" y="100"/>
      <point x="260" y="135"/>
      <point x="304" y="135" type="curve" smooth="yes"/>
      <point x="345" y="135"/>
      <point x="371" y="100"/>
      <point x="362" y="57" type="curve" smooth="yes"/>
      <point x="340" y="-45"/>
      <point x="243" y="-83"/>
      <point x="245" y="-83" type="curve"/>
    </contour>
  </outline>
</glyph>
<glyph name="perthousand" format="1">
  <advance width="1073" height="962"/>
  <unicode hex="2030"/>
  <outline>
    <contour>
      <point x="35" y="0" type="line"/>
      <point x="723" y="700" type="line"/>
      <point x="840" y="700" type="line"/>
      <point x="150" y="0" type="line"/>
    </contour>
    <contour>
      <point x="340" y="715" type="curve" smooth="yes"/>
      <point x="420" y="715"/>
      <point x="471" y="650"/>
      <point x="454" y="570" type="curve" smooth="yes"/>
      <point x="437" y="489"/>
      <point x="358" y="423"/>
      <point x="278" y="423" type="curve" smooth="yes"/>
      <point x="198" y="423"/>
      <point x="146" y="489"/>
      <point x="163" y="570" type="curve" smooth="yes"/>
      <point x="180" y="650"/>
      <point x="260" y="715"/>
    </contour>
    <contour>
      <point x="320" y="622" type="curve" smooth="yes"/>
      <point x="291" y="622"/>
      <point x="263" y="598"/>
      <point x="257" y="570" type="curve" smooth="yes"/>
      <point x="251" y="541"/>
      <point x="269" y="517"/>
      <point x="298" y="517" type="curve" smooth="yes"/>
      <point x="327" y="517"/>
      <point x="355" y="541"/>
      <point x="361" y="570" type="curve" smooth="yes"/>
      <point x="367" y="598"/>
      <point x="349" y="622"/>
    </contour>
    <contour>
      <point x="608" y="278" type="curve" smooth="yes"/>
      <point x="690" y="278"/>
      <point x="740" y="213"/>
      <point x="723" y="132" type="curve" smooth="yes"/>
      <point x="706" y="51"/>
      <point x="628" y="-14"/>
      <point x="546" y="-14" type="curve" smooth="yes"/>
      <point x="466" y="-14"/>
      <point x="415" y="51"/>
      <point x="432" y="132" type="curve" smooth="yes"/>
      <point x="449" y="213"/>
      <point x="528" y="278"/>
    </contour>
    <contour>
      <point x="588" y="185" type="curve" smooth="yes"/>
      <point x="559" y="185"/>
      <point x="531" y="159"/>
      <point x="525" y="132" type="curve" smooth="yes"/>
      <point x="519" y="103"/>
      <point x="537" y="79"/>
      <point x="566" y="79" type="curve" smooth="yes"/>
      <point x="596" y="79"/>
      <point x="624" y="103"/>
      <point x="630" y="132" type="curve" smooth="yes"/>
      <point x="636" y="159"/>
      <point x="618" y="185"/>
    </contour>
    <contour>
      <point x="955" y="278" type="curve" smooth="yes"/>
      <point x="1034" y="278"/>
      <point x="1087" y="213"/>
      <point x="1070" y="132" type="curve" smooth="yes"/>
      <point x="1053" y="51"/>
      <point x="972" y="-14"/>
      <point x="893" y="-14" type="curve" smooth="yes"/>
      <point x="813" y="-14"/>
      <point x="761" y="51"/>
      <point x="778" y="132" type="curve" smooth="yes"/>
      <point x="795" y="213"/>
      <point x="875" y="278"/>
    </contour>
    <contour>
      <point x="935" y="185" type="curve" smooth="yes"/>
      <point x="904" y="185"/>
      <point x="878" y="159"/>
      <point x="872" y="132" type="curve" smooth="yes"/>
      <point x="866" y="103"/>
      <point x="882" y="79"/>
      <point x="913" y="79" type="curve" smooth="yes"/>
      <point x="943" y="79"/>
      <point x="971" y="103"/>
      <point x="977" y="132" type="curve" smooth="yes"/>
      <point x="983" y="159"/>
      <point x="965" y="185"/>
    </contour>
  </outline>
</glyph>
<glyph name="guilsinglleft" format="2">
  <advance width="321" height="962"/>
  <unicode hex="2039"/>
  <outline>
    <contour>
      <point x="81.9652" y="268" type="line"/>
      <point x="318.926" y="463" type="line"/>
      <point x="393.622" y="377" type="line"/>
      <point x="245.965" y="261" type="line"/>
      <point x="341.671" y="143" type="line"/>
      <point x="247.005" y="67" type="line"/>
    </contour>
  </outline>
</glyph>
<glyph name="guilsinglright" format="2">
  <advance width="322"/>
  <unicode hex="203A"/>
  <outline>
    <contour>
      <point x="209" y="268" type="line"/>
      <point x="114" y="384" type="line"/>
      <point x="203" y="456" type="line"/>
      <point x="349" y="268" type="line"/>
      <point x="123" y="80" type="line"/>
      <point x="65" y="149" type="line"/>
    </contour>
  </outline>
</glyph>
<glyph name="Euro" format="1">
  <advance width="427" height="962"/>
  <unicode hex="20AC"/>
  <outline>
    <component base="C"/>
    <contour>
      <point x="77" y="367" type="line"/>
      <point x="104" y="493" type="line"/>
      <point x="462" y="493" type="line"/>
      <point x="435" y="367" type="line"/>
    </contour>
    <contour>
      <point x="45" y="215" type="line"/>
      <point x="71" y="340" type="line"/>
      <point x="429" y="340" type="line"/>
      <point x="403" y="215" type="line"/>
    </contour>
  </outline>
</glyph>
<glyph name="uni20B4" format="2">
  <advance width="546"/>
  <unicode hex="20B4"/>
  <outline>
    <contour>
      <point x="132" y="437" type="line"/>
      <point x="155" y="491" type="line"/>
      <point x="558" y="407" type="line"/>
      <point x="536" y="353" type="line"/>
    </contour>
    <contour>
      <point x="92" y="340" type="line"/>
      <point x="115" y="394" type="line"/>
      <point x="518" y="310" type="line"/>
      <point x="496" y="256" type="line"/>
    </contour>
    <contour>
      <point x="235" y="529" type="curve"/>
      <point x="234" y="674" type="line"/>
      <point x="288" y="700"/>
      <point x="347" y="711"/>
      <point x="402" y="711" type="curve" smooth="yes"/>
      <point x="504" y="711"/>
      <point x="630" y="663"/>
      <point x="596" y="509" type="curve" smooth="yes"/>
      <point x="549" y="286"/>
      <point x="270" y="301"/>
      <point x="250" y="209" type="curve" smooth="yes"/>
      <point x="241" y="167"/>
      <point x="272" y="149"/>
      <point x="323" y="149" type="curve" smooth="yes"/>
      <point x="373" y="149"/>
      <point x="430" y="179"/>
      <point x="472" y="213" type="curve"/>
      <point x="528" y="89" type="line"/>
      <point x="457" y="22"/>
      <point x="361" y="-11"/>
      <point x="276" y="-11" type="curve" smooth="yes"/>
      <point x="142" y="-11"/>
      <point x="30" y="46"/>
      <point x="66" y="215" type="curve" smooth="yes"/>
      <point x="113" y="433"/>
      <point x="405" y="422"/>
      <point x="423" y="507" type="curve" smooth="yes"/>
      <point x="431" y="544"/>
      <point x="405" y="556"/>
      <point x="363" y="556" type="curve" smooth="yes"/>
      <point x="319" y="556"/>
      <point x="278" y="542"/>
    </contour>
  </outline>
  <guideline angle="90" x="57.5232" y="0"/>
  <guideline angle="0" x="0" y="586"/>
  <guideline angle="90" x="482.011" y="0"/>
  <guideline angle="0" x="0" y="586"/>
  <guideline angle="90" x="498.028" y="0"/>
  <guideline angle="0" x="0" y="586"/>
</glyph>
<glyph name="uni2116" format="2">
  <advance width="956" height="962"/>
  <unicode hex="2116"/>
  <outline>
    <contour>
      <point x="805" y="279" type="curve" smooth="yes"/>
      <point x="814" y="279"/>
      <point x="821" y="288"/>
      <point x="825" y="305" type="curve" smooth="yes"/>
      <point x="835" y="351" type="line" smooth="yes"/>
      <point x="837" y="364"/>
      <point x="835" y="377"/>
      <point x="826" y="377" type="curve" smooth="yes"/>
      <point x="816" y="377"/>
      <point x="810" y="366"/>
      <point x="807" y="351" type="curve" smooth="yes"/>
      <point x="797" y="305" type="line" smooth="yes"/>
      <point x="793" y="289"/>
      <point x="796" y="279"/>
    </contour>
    <contour>
      <point x="857" y="516" type="curve" smooth="yes"/>
      <point x="976" y="516"/>
      <point x="1011" y="442"/>
      <point x="994" y="361" type="curve" smooth="yes"/>
      <point x="982" y="304" type="line" smooth="yes"/>
      <point x="960" y="204"/>
      <point x="890" y="149"/>
      <point x="779" y="149" type="curve" smooth="yes"/>
      <point x="674" y="149"/>
      <point x="627" y="207"/>
      <point x="648" y="304" type="curve" smooth="yes"/>
      <point x="660" y="361" type="line" smooth="yes"/>
      <point x="680" y="454"/>
      <point x="748" y="516"/>
    </contour>
    <contour>
      <point x="583" y="0" type="line"/>
      <point x="609" y="122" type="line"/>
      <point x="943" y="122" type="line"/>
      <point x="917" y="0" type="line"/>
    </contour>
    <contour>
      <point x="684" y="700" type="line"/>
      <point x="535" y="0" type="line"/>
      <point x="349" y="0" type="line"/>
      <point x="284" y="295" type="line"/>
      <point x="221" y="-1" type="line"/>
      <point x="41" y="0" type="line"/>
      <point x="190" y="700" type="line"/>
      <point x="370" y="700" type="line"/>
      <point x="437" y="393" type="line"/>
      <point x="502" y="700" type="line"/>
    </contour>
  </outline>
</glyph>
<glyph name="y_lower_alt" format="1">
  <advance width="497" height="962"/>
  <unicode hex="9998"/>
  <outline>
    <contour>
      <point x="56" y="-209" type="line"/>
      <point x="158" y="-3" type="line"/>
      <point x="126" y="500" type="line"/>
      <point x="310" y="500" type="line"/>
      <point x="303" y="274" type="line"/>
      <point x="392" y="500" type="line"/>
      <point x="582" y="500" type="line"/>
      <point x="240" y="-209" type="line"/>
    </contour>
  </outline>
</glyph>
<glyph name="fl" format="1">
  <advance width="560" height="962"/>
  <unicode hex="FB02"/>
  <outline>
    <contour>
      <point x="449" y="528" type="line"/>
      <point x="433" y="535"/>
      <point x="400" y="540"/>
      <point x="372" y="540" type="curve" smooth="yes"/>
      <point x="348" y="540"/>
      <point x="332" y="526"/>
      <point x="329" y="512" type="curve" smooth="yes"/>
      <point x="326" y="501" type="line"/>
      <point x="415" y="501" type="line"/>
      <point x="349" y="321" type="line"/>
      <point x="288" y="321" type="line"/>
      <point x="220" y="0" type="line"/>
      <point x="39" y="0" type="line"/>
      <point x="149" y="518" type="line" smooth="yes"/>
      <point x="172" y="627"/>
      <point x="244" y="710"/>
      <point x="409" y="710" type="curve" smooth="yes"/>
      <point x="479" y="710"/>
      <point x="574" y="697"/>
      <point x="658" y="661" type="curve"/>
      <point x="518" y="0" type="line"/>
      <point x="337" y="0" type="line"/>
    </contour>
  </outline>
</glyph>
<glyph name="commaturnedabove" format="2">
  <advance width="267" height="962"/>
  <outline>
    <contour>
      <point x="331" y="736" type="line"/>
      <point x="316" y="723"/>
      <point x="308" y="713"/>
      <point x="301" y="703" type="curve"/>
      <point x="335" y="694"/>
      <point x="353" y="665"/>
      <point x="346" y="629" type="curve" smooth="yes"/>
      <point x="337" y="586"/>
      <point x="294" y="551"/>
      <point x="250" y="551" type="curve" smooth="yes"/>
      <point x="209" y="551"/>
      <point x="183" y="586"/>
      <point x="192" y="629" type="curve" smooth="yes"/>
      <point x="213" y="731"/>
      <point x="308" y="758"/>
      <point x="306" y="758" type="curve"/>
    </contour>
  </outline>
</glyph>
<glyph name="ft" format="2">
  <advance width="667"/>
  <outline>
    <contour>
      <point x="584" y="203" type="line" smooth="yes"/>
      <point x="574" y="157"/>
      <point x="596" y="145"/>
      <point x="642" y="145" type="curve"/>
      <point x="546" y="-13" type="line"/>
      <point x="412" y="-13"/>
      <point x="382" y="74"/>
      <point x="402" y="169" type="curve" smooth="yes"/>
      <point x="479" y="530" type="line"/>
      <point x="458" y="534"/>
      <point x="411" y="540"/>
      <point x="373" y="540" type="curve" smooth="yes"/>
      <point x="351" y="540"/>
      <point x="334" y="534"/>
      <point x="330" y="517" type="curve" smooth="yes"/>
      <point x="326" y="501" type="line"/>
      <point x="444" y="501" type="line"/>
      <point x="376" y="320" type="line"/>
      <point x="288" y="320" type="line"/>
      <point x="220" y="0" type="line"/>
      <point x="39" y="0" type="line"/>
      <point x="149" y="518" type="line" smooth="yes"/>
      <point x="172" y="627"/>
      <point x="243" y="710"/>
      <point x="404" y="710" type="curve" smooth="yes"/>
      <point x="474" y="710"/>
      <point x="590" y="693"/>
      <point x="681" y="660" type="curve"/>
      <point x="647" y="501" type="line"/>
      <point x="744" y="501" type="line"/>
      <point x="677" y="320" type="line"/>
      <point x="609" y="320" type="line"/>
    </contour>
  </outline>
</glyph>
<glyph name="lambda_lambda" format="1">
  <advance width="893" height="962"/>
  <outline>
    <component base="lambda" xOffset="313.5"/>
    <contour>
      <point x="523" y="0" type="line"/>
      <point x="335" y="0" type="line"/>
      <point x="319" y="224" type="line"/>
      <point x="319" y="224"/>
      <point x="312" y="222"/>
      <point x="310" y="218" type="curve" smooth="yes"/>
      <point x="209" y="0" type="line"/>
      <point x="24" y="0" type="line"/>
      <point x="204" y="355" type="line" smooth="yes"/>
      <point x="234" y="413"/>
      <point x="273" y="434"/>
      <point x="305" y="446" type="curve"/>
      <point x="299" y="493" type="line" smooth="yes"/>
      <point x="292" y="542"/>
      <point x="238" y="542"/>
      <point x="195" y="542" type="curve"/>
      <point x="272" y="702" type="line"/>
      <point x="392" y="702"/>
      <point x="465" y="652"/>
      <point x="473" y="556" type="curve" smooth="yes"/>
    </contour>
  </outline>
</glyph>
<glyph name="tonoscomb" format="2">
  <advance width="267" height="962"/>
  <outline>
    <contour>
      <point x="367.379" y="665" type="curve" smooth="yes"/>
      <point x="301.135" y="598" type="line"/>
      <point x="212.135" y="598" type="line"/>
      <point x="268.009" y="715" type="line" smooth="yes"/>
      <point x="284.45" y="750"/>
      <point x="335.891" y="785"/>
      <point x="375.001" y="762" type="curve" smooth="yes"/>
      <point x="411.537" y="741"/>
      <point x="394.119" y="692"/>
    </contour>
  </outline>
</glyph>
